<?xml version="1.0" encoding="utf-8" standalone="no"?>
<!DOCTYPE svg PUBLIC "-//W3C//DTD SVG 1.1//EN"
  "http://www.w3.org/Graphics/SVG/1.1/DTD/svg11.dtd">
<svg xmlns:xlink="http://www.w3.org/1999/xlink" width="615.983125pt" height="354.876094pt" viewBox="0 0 615.983125 354.876094" xmlns="http://www.w3.org/2000/svg" version="1.1">
 <metadata>
  <rdf:RDF xmlns:dc="http://purl.org/dc/elements/1.1/" xmlns:cc="http://creativecommons.org/ns#" xmlns:rdf="http://www.w3.org/1999/02/22-rdf-syntax-ns#">
   <cc:Work>
    <dc:type rdf:resource="http://purl.org/dc/dcmitype/StillImage"/>
    <dc:date>2026-02-24T14:22:26.980837</dc:date>
    <dc:format>image/svg+xml</dc:format>
    <dc:creator>
     <cc:Agent>
      <dc:title>Matplotlib v3.10.8, https://matplotlib.org/</dc:title>
     </cc:Agent>
    </dc:creator>
   </cc:Work>
  </rdf:RDF>
 </metadata>
 <defs>
  <style type="text/css">*{stroke-linejoin: round; stroke-linecap: butt}</style>
 </defs>
 <g id="figure_1">
  <g id="patch_1">
   <path d="M 0 354.876094
L 615.983125 354.876094
L 615.983125 0
L 0 0
z
" style="fill: #1e1e2e"/>
  </g>
  <g id="axes_1">
   <g id="patch_2">
    <path d="M 50.783125 333.997969
L 608.783125 333.997969
L 608.783125 29.077969
L 50.783125 29.077969
z
" style="fill: #1e1e2e"/>
   </g>
   <g id="matplotlib.axis_1">
    <g id="text_1">
     <!-- Time -->
     <g style="fill: #cdd6f4" transform="translate(317.549531 345.596406) scale(0.1 -0.1)">
      <defs>
       <path id="DejaVuSans-54" d="M -19 4666
L 3928 4666
L 3928 4134
L 2272 4134
L 2272 0
L 1638 0
L 1638 4134
L -19 4134
L -19 4666
z
" transform="scale(0.015625)"/>
       <path id="DejaVuSans-69" d="M 603 3500
L 1178 3500
L 1178 0
L 603 0
L 603 3500
z
M 603 4863
L 1178 4863
L 1178 4134
L 603 4134
L 603 4863
z
" transform="scale(0.015625)"/>
       <path id="DejaVuSans-6d" d="M 3328 2828
Q 3544 3216 3844 3400
Q 4144 3584 4550 3584
Q 5097 3584 5394 3201
Q 5691 2819 5691 2113
L 5691 0
L 5113 0
L 5113 2094
Q 5113 2597 4934 2840
Q 4756 3084 4391 3084
Q 3944 3084 3684 2787
Q 3425 2491 3425 1978
L 3425 0
L 2847 0
L 2847 2094
Q 2847 2600 2669 2842
Q 2491 3084 2119 3084
Q 1678 3084 1418 2786
Q 1159 2488 1159 1978
L 1159 0
L 581 0
L 581 3500
L 1159 3500
L 1159 2956
Q 1356 3278 1631 3431
Q 1906 3584 2284 3584
Q 2666 3584 2933 3390
Q 3200 3197 3328 2828
z
" transform="scale(0.015625)"/>
       <path id="DejaVuSans-65" d="M 3597 1894
L 3597 1613
L 953 1613
Q 991 1019 1311 708
Q 1631 397 2203 397
Q 2534 397 2845 478
Q 3156 559 3463 722
L 3463 178
Q 3153 47 2828 -22
Q 2503 -91 2169 -91
Q 1331 -91 842 396
Q 353 884 353 1716
Q 353 2575 817 3079
Q 1281 3584 2069 3584
Q 2775 3584 3186 3129
Q 3597 2675 3597 1894
z
M 3022 2063
Q 3016 2534 2758 2815
Q 2500 3097 2075 3097
Q 1594 3097 1305 2825
Q 1016 2553 972 2059
L 3022 2063
z
" transform="scale(0.015625)"/>
      </defs>
      <use xlink:href="#DejaVuSans-54"/>
      <use xlink:href="#DejaVuSans-69" transform="translate(57.958984 0)"/>
      <use xlink:href="#DejaVuSans-6d" transform="translate(85.742188 0)"/>
      <use xlink:href="#DejaVuSans-65" transform="translate(183.154297 0)"/>
     </g>
    </g>
   </g>
   <g id="matplotlib.axis_2">
    <g id="ytick_1">
     <g id="line2d_1">
      <defs>
       <path id="mbff0e57380" d="M 0 0
L -3.5 0
" style="stroke: #a6adc8; stroke-width: 0.8"/>
      </defs>
      <g>
       <use xlink:href="#mbff0e57380" x="50.783125" y="311.577381" style="fill: #a6adc8; stroke: #a6adc8; stroke-width: 0.8"/>
      </g>
     </g>
     <g id="text_2">
      <!-- 2700 -->
      <g style="fill: #a6adc8" transform="translate(20.878125 314.996677) scale(0.09 -0.09)">
       <defs>
        <path id="DejaVuSans-32" d="M 1228 531
L 3431 531
L 3431 0
L 469 0
L 469 531
Q 828 903 1448 1529
Q 2069 2156 2228 2338
Q 2531 2678 2651 2914
Q 2772 3150 2772 3378
Q 2772 3750 2511 3984
Q 2250 4219 1831 4219
Q 1534 4219 1204 4116
Q 875 4013 500 3803
L 500 4441
Q 881 4594 1212 4672
Q 1544 4750 1819 4750
Q 2544 4750 2975 4387
Q 3406 4025 3406 3419
Q 3406 3131 3298 2873
Q 3191 2616 2906 2266
Q 2828 2175 2409 1742
Q 1991 1309 1228 531
z
" transform="scale(0.015625)"/>
        <path id="DejaVuSans-37" d="M 525 4666
L 3525 4666
L 3525 4397
L 1831 0
L 1172 0
L 2766 4134
L 525 4134
L 525 4666
z
" transform="scale(0.015625)"/>
        <path id="DejaVuSans-30" d="M 2034 4250
Q 1547 4250 1301 3770
Q 1056 3291 1056 2328
Q 1056 1369 1301 889
Q 1547 409 2034 409
Q 2525 409 2770 889
Q 3016 1369 3016 2328
Q 3016 3291 2770 3770
Q 2525 4250 2034 4250
z
M 2034 4750
Q 2819 4750 3233 4129
Q 3647 3509 3647 2328
Q 3647 1150 3233 529
Q 2819 -91 2034 -91
Q 1250 -91 836 529
Q 422 1150 422 2328
Q 422 3509 836 4129
Q 1250 4750 2034 4750
z
" transform="scale(0.015625)"/>
       </defs>
       <use xlink:href="#DejaVuSans-32"/>
       <use xlink:href="#DejaVuSans-37" transform="translate(63.623047 0)"/>
       <use xlink:href="#DejaVuSans-30" transform="translate(127.246094 0)"/>
       <use xlink:href="#DejaVuSans-30" transform="translate(190.869141 0)"/>
      </g>
     </g>
    </g>
    <g id="ytick_2">
     <g id="line2d_2">
      <g>
       <use xlink:href="#mbff0e57380" x="50.783125" y="266.736204" style="fill: #a6adc8; stroke: #a6adc8; stroke-width: 0.8"/>
      </g>
     </g>
     <g id="text_3">
      <!-- 2800 -->
      <g style="fill: #a6adc8" transform="translate(20.878125 270.155501) scale(0.09 -0.09)">
       <defs>
        <path id="DejaVuSans-38" d="M 2034 2216
Q 1584 2216 1326 1975
Q 1069 1734 1069 1313
Q 1069 891 1326 650
Q 1584 409 2034 409
Q 2484 409 2743 651
Q 3003 894 3003 1313
Q 3003 1734 2745 1975
Q 2488 2216 2034 2216
z
M 1403 2484
Q 997 2584 770 2862
Q 544 3141 544 3541
Q 544 4100 942 4425
Q 1341 4750 2034 4750
Q 2731 4750 3128 4425
Q 3525 4100 3525 3541
Q 3525 3141 3298 2862
Q 3072 2584 2669 2484
Q 3125 2378 3379 2068
Q 3634 1759 3634 1313
Q 3634 634 3220 271
Q 2806 -91 2034 -91
Q 1263 -91 848 271
Q 434 634 434 1313
Q 434 1759 690 2068
Q 947 2378 1403 2484
z
M 1172 3481
Q 1172 3119 1398 2916
Q 1625 2713 2034 2713
Q 2441 2713 2670 2916
Q 2900 3119 2900 3481
Q 2900 3844 2670 4047
Q 2441 4250 2034 4250
Q 1625 4250 1398 4047
Q 1172 3844 1172 3481
z
" transform="scale(0.015625)"/>
       </defs>
       <use xlink:href="#DejaVuSans-32"/>
       <use xlink:href="#DejaVuSans-38" transform="translate(63.623047 0)"/>
       <use xlink:href="#DejaVuSans-30" transform="translate(127.246094 0)"/>
       <use xlink:href="#DejaVuSans-30" transform="translate(190.869141 0)"/>
      </g>
     </g>
    </g>
    <g id="ytick_3">
     <g id="line2d_3">
      <g>
       <use xlink:href="#mbff0e57380" x="50.783125" y="221.895028" style="fill: #a6adc8; stroke: #a6adc8; stroke-width: 0.8"/>
      </g>
     </g>
     <g id="text_4">
      <!-- 2900 -->
      <g style="fill: #a6adc8" transform="translate(20.878125 225.314324) scale(0.09 -0.09)">
       <defs>
        <path id="DejaVuSans-39" d="M 703 97
L 703 672
Q 941 559 1184 500
Q 1428 441 1663 441
Q 2288 441 2617 861
Q 2947 1281 2994 2138
Q 2813 1869 2534 1725
Q 2256 1581 1919 1581
Q 1219 1581 811 2004
Q 403 2428 403 3163
Q 403 3881 828 4315
Q 1253 4750 1959 4750
Q 2769 4750 3195 4129
Q 3622 3509 3622 2328
Q 3622 1225 3098 567
Q 2575 -91 1691 -91
Q 1453 -91 1209 -44
Q 966 3 703 97
z
M 1959 2075
Q 2384 2075 2632 2365
Q 2881 2656 2881 3163
Q 2881 3666 2632 3958
Q 2384 4250 1959 4250
Q 1534 4250 1286 3958
Q 1038 3666 1038 3163
Q 1038 2656 1286 2365
Q 1534 2075 1959 2075
z
" transform="scale(0.015625)"/>
       </defs>
       <use xlink:href="#DejaVuSans-32"/>
       <use xlink:href="#DejaVuSans-39" transform="translate(63.623047 0)"/>
       <use xlink:href="#DejaVuSans-30" transform="translate(127.246094 0)"/>
       <use xlink:href="#DejaVuSans-30" transform="translate(190.869141 0)"/>
      </g>
     </g>
    </g>
    <g id="ytick_4">
     <g id="line2d_4">
      <g>
       <use xlink:href="#mbff0e57380" x="50.783125" y="177.053851" style="fill: #a6adc8; stroke: #a6adc8; stroke-width: 0.8"/>
      </g>
     </g>
     <g id="text_5">
      <!-- 3000 -->
      <g style="fill: #a6adc8" transform="translate(20.878125 180.473148) scale(0.09 -0.09)">
       <defs>
        <path id="DejaVuSans-33" d="M 2597 2516
Q 3050 2419 3304 2112
Q 3559 1806 3559 1356
Q 3559 666 3084 287
Q 2609 -91 1734 -91
Q 1441 -91 1130 -33
Q 819 25 488 141
L 488 750
Q 750 597 1062 519
Q 1375 441 1716 441
Q 2309 441 2620 675
Q 2931 909 2931 1356
Q 2931 1769 2642 2001
Q 2353 2234 1838 2234
L 1294 2234
L 1294 2753
L 1863 2753
Q 2328 2753 2575 2939
Q 2822 3125 2822 3475
Q 2822 3834 2567 4026
Q 2313 4219 1838 4219
Q 1578 4219 1281 4162
Q 984 4106 628 3988
L 628 4550
Q 988 4650 1302 4700
Q 1616 4750 1894 4750
Q 2613 4750 3031 4423
Q 3450 4097 3450 3541
Q 3450 3153 3228 2886
Q 3006 2619 2597 2516
z
" transform="scale(0.015625)"/>
       </defs>
       <use xlink:href="#DejaVuSans-33"/>
       <use xlink:href="#DejaVuSans-30" transform="translate(63.623047 0)"/>
       <use xlink:href="#DejaVuSans-30" transform="translate(127.246094 0)"/>
       <use xlink:href="#DejaVuSans-30" transform="translate(190.869141 0)"/>
      </g>
     </g>
    </g>
    <g id="ytick_5">
     <g id="line2d_5">
      <g>
       <use xlink:href="#mbff0e57380" x="50.783125" y="132.212675" style="fill: #a6adc8; stroke: #a6adc8; stroke-width: 0.8"/>
      </g>
     </g>
     <g id="text_6">
      <!-- 3100 -->
      <g style="fill: #a6adc8" transform="translate(20.878125 135.631972) scale(0.09 -0.09)">
       <defs>
        <path id="DejaVuSans-31" d="M 794 531
L 1825 531
L 1825 4091
L 703 3866
L 703 4441
L 1819 4666
L 2450 4666
L 2450 531
L 3481 531
L 3481 0
L 794 0
L 794 531
z
" transform="scale(0.015625)"/>
       </defs>
       <use xlink:href="#DejaVuSans-33"/>
       <use xlink:href="#DejaVuSans-31" transform="translate(63.623047 0)"/>
       <use xlink:href="#DejaVuSans-30" transform="translate(127.246094 0)"/>
       <use xlink:href="#DejaVuSans-30" transform="translate(190.869141 0)"/>
      </g>
     </g>
    </g>
    <g id="ytick_6">
     <g id="line2d_6">
      <g>
       <use xlink:href="#mbff0e57380" x="50.783125" y="87.371498" style="fill: #a6adc8; stroke: #a6adc8; stroke-width: 0.8"/>
      </g>
     </g>
     <g id="text_7">
      <!-- 3200 -->
      <g style="fill: #a6adc8" transform="translate(20.878125 90.790795) scale(0.09 -0.09)">
       <use xlink:href="#DejaVuSans-33"/>
       <use xlink:href="#DejaVuSans-32" transform="translate(63.623047 0)"/>
       <use xlink:href="#DejaVuSans-30" transform="translate(127.246094 0)"/>
       <use xlink:href="#DejaVuSans-30" transform="translate(190.869141 0)"/>
      </g>
     </g>
    </g>
    <g id="ytick_7">
     <g id="line2d_7">
      <g>
       <use xlink:href="#mbff0e57380" x="50.783125" y="42.530322" style="fill: #a6adc8; stroke: #a6adc8; stroke-width: 0.8"/>
      </g>
     </g>
     <g id="text_8">
      <!-- 3300 -->
      <g style="fill: #a6adc8" transform="translate(20.878125 45.949619) scale(0.09 -0.09)">
       <use xlink:href="#DejaVuSans-33"/>
       <use xlink:href="#DejaVuSans-33" transform="translate(63.623047 0)"/>
       <use xlink:href="#DejaVuSans-30" transform="translate(127.246094 0)"/>
       <use xlink:href="#DejaVuSans-30" transform="translate(190.869141 0)"/>
      </g>
     </g>
    </g>
    <g id="text_9">
     <!-- Price (USD) -->
     <g style="fill: #cdd6f4" transform="translate(14.798438 209.909844) rotate(-90) scale(0.1 -0.1)">
      <defs>
       <path id="DejaVuSans-50" d="M 1259 4147
L 1259 2394
L 2053 2394
Q 2494 2394 2734 2622
Q 2975 2850 2975 3272
Q 2975 3691 2734 3919
Q 2494 4147 2053 4147
L 1259 4147
z
M 628 4666
L 2053 4666
Q 2838 4666 3239 4311
Q 3641 3956 3641 3272
Q 3641 2581 3239 2228
Q 2838 1875 2053 1875
L 1259 1875
L 1259 0
L 628 0
L 628 4666
z
" transform="scale(0.015625)"/>
       <path id="DejaVuSans-72" d="M 2631 2963
Q 2534 3019 2420 3045
Q 2306 3072 2169 3072
Q 1681 3072 1420 2755
Q 1159 2438 1159 1844
L 1159 0
L 581 0
L 581 3500
L 1159 3500
L 1159 2956
Q 1341 3275 1631 3429
Q 1922 3584 2338 3584
Q 2397 3584 2469 3576
Q 2541 3569 2628 3553
L 2631 2963
z
" transform="scale(0.015625)"/>
       <path id="DejaVuSans-63" d="M 3122 3366
L 3122 2828
Q 2878 2963 2633 3030
Q 2388 3097 2138 3097
Q 1578 3097 1268 2742
Q 959 2388 959 1747
Q 959 1106 1268 751
Q 1578 397 2138 397
Q 2388 397 2633 464
Q 2878 531 3122 666
L 3122 134
Q 2881 22 2623 -34
Q 2366 -91 2075 -91
Q 1284 -91 818 406
Q 353 903 353 1747
Q 353 2603 823 3093
Q 1294 3584 2113 3584
Q 2378 3584 2631 3529
Q 2884 3475 3122 3366
z
" transform="scale(0.015625)"/>
       <path id="DejaVuSans-20" transform="scale(0.015625)"/>
       <path id="DejaVuSans-28" d="M 1984 4856
Q 1566 4138 1362 3434
Q 1159 2731 1159 2009
Q 1159 1288 1364 580
Q 1569 -128 1984 -844
L 1484 -844
Q 1016 -109 783 600
Q 550 1309 550 2009
Q 550 2706 781 3412
Q 1013 4119 1484 4856
L 1984 4856
z
" transform="scale(0.015625)"/>
       <path id="DejaVuSans-55" d="M 556 4666
L 1191 4666
L 1191 1831
Q 1191 1081 1462 751
Q 1734 422 2344 422
Q 2950 422 3222 751
Q 3494 1081 3494 1831
L 3494 4666
L 4128 4666
L 4128 1753
Q 4128 841 3676 375
Q 3225 -91 2344 -91
Q 1459 -91 1007 375
Q 556 841 556 1753
L 556 4666
z
" transform="scale(0.015625)"/>
       <path id="DejaVuSans-53" d="M 3425 4513
L 3425 3897
Q 3066 4069 2747 4153
Q 2428 4238 2131 4238
Q 1616 4238 1336 4038
Q 1056 3838 1056 3469
Q 1056 3159 1242 3001
Q 1428 2844 1947 2747
L 2328 2669
Q 3034 2534 3370 2195
Q 3706 1856 3706 1288
Q 3706 609 3251 259
Q 2797 -91 1919 -91
Q 1588 -91 1214 -16
Q 841 59 441 206
L 441 856
Q 825 641 1194 531
Q 1563 422 1919 422
Q 2459 422 2753 634
Q 3047 847 3047 1241
Q 3047 1584 2836 1778
Q 2625 1972 2144 2069
L 1759 2144
Q 1053 2284 737 2584
Q 422 2884 422 3419
Q 422 4038 858 4394
Q 1294 4750 2059 4750
Q 2388 4750 2728 4690
Q 3069 4631 3425 4513
z
" transform="scale(0.015625)"/>
       <path id="DejaVuSans-44" d="M 1259 4147
L 1259 519
L 2022 519
Q 2988 519 3436 956
Q 3884 1394 3884 2338
Q 3884 3275 3436 3711
Q 2988 4147 2022 4147
L 1259 4147
z
M 628 4666
L 1925 4666
Q 3281 4666 3915 4102
Q 4550 3538 4550 2338
Q 4550 1131 3912 565
Q 3275 0 1925 0
L 628 0
L 628 4666
z
" transform="scale(0.015625)"/>
       <path id="DejaVuSans-29" d="M 513 4856
L 1013 4856
Q 1481 4119 1714 3412
Q 1947 2706 1947 2009
Q 1947 1309 1714 600
Q 1481 -109 1013 -844
L 513 -844
Q 928 -128 1133 580
Q 1338 1288 1338 2009
Q 1338 2731 1133 3434
Q 928 4138 513 4856
z
" transform="scale(0.015625)"/>
      </defs>
      <use xlink:href="#DejaVuSans-50"/>
      <use xlink:href="#DejaVuSans-72" transform="translate(58.552734 0)"/>
      <use xlink:href="#DejaVuSans-69" transform="translate(99.666016 0)"/>
      <use xlink:href="#DejaVuSans-63" transform="translate(127.449219 0)"/>
      <use xlink:href="#DejaVuSans-65" transform="translate(182.429688 0)"/>
      <use xlink:href="#DejaVuSans-20" transform="translate(243.953125 0)"/>
      <use xlink:href="#DejaVuSans-28" transform="translate(275.740234 0)"/>
      <use xlink:href="#DejaVuSans-55" transform="translate(314.753906 0)"/>
      <use xlink:href="#DejaVuSans-53" transform="translate(387.947266 0)"/>
      <use xlink:href="#DejaVuSans-44" transform="translate(451.423828 0)"/>
      <use xlink:href="#DejaVuSans-29" transform="translate(528.425781 0)"/>
     </g>
    </g>
   </g>
   <g id="line2d_8">
    <path d="M 50.783125 311.577381
L 608.783125 311.577381
" clip-path="url(#pfff507995c)" style="fill: none; stroke-dasharray: 2.96,1.28; stroke-dashoffset: 0; stroke: #6c7086; stroke-opacity: 0.7; stroke-width: 0.8"/>
   </g>
   <g id="line2d_9">
    <path d="M 50.783125 251.041792
L 608.783125 251.041792
" clip-path="url(#pfff507995c)" style="fill: none; stroke-dasharray: 2.96,1.28; stroke-dashoffset: 0; stroke: #6c7086; stroke-opacity: 0.7; stroke-width: 0.8"/>
   </g>
   <g id="line2d_10">
    <path d="M 50.783125 188.264145
L 608.783125 188.264145
" clip-path="url(#pfff507995c)" style="fill: none; stroke-dasharray: 2.96,1.28; stroke-dashoffset: 0; stroke: #6c7086; stroke-opacity: 0.7; stroke-width: 0.8"/>
   </g>
   <g id="line2d_11">
    <path d="M 50.783125 121.002381
L 608.783125 121.002381
" clip-path="url(#pfff507995c)" style="fill: none; stroke-dasharray: 2.96,1.28; stroke-dashoffset: 0; stroke: #6c7086; stroke-opacity: 0.7; stroke-width: 0.8"/>
   </g>
   <g id="line2d_12">
    <path d="M 50.783125 51.498557
L 608.783125 51.498557
" clip-path="url(#pfff507995c)" style="fill: none; stroke-dasharray: 2.96,1.28; stroke-dashoffset: 0; stroke: #6c7086; stroke-opacity: 0.7; stroke-width: 0.8"/>
   </g>
   <g id="patch_3">
    <path d="M 50.783125 333.997969
L 50.783125 29.077969
" style="fill: none; stroke: #313244; stroke-width: 0.8; stroke-linejoin: miter; stroke-linecap: square"/>
   </g>
   <g id="patch_4">
    <path d="M 608.783125 333.997969
L 608.783125 29.077969
" style="fill: none; stroke: #313244; stroke-width: 0.8; stroke-linejoin: miter; stroke-linecap: square"/>
   </g>
   <g id="patch_5">
    <path d="M 50.783125 333.997969
L 608.783125 333.997969
" style="fill: none; stroke: #313244; stroke-width: 0.8; stroke-linejoin: miter; stroke-linecap: square"/>
   </g>
   <g id="patch_6">
    <path d="M 50.783125 29.077969
L 608.783125 29.077969
" style="fill: none; stroke: #313244; stroke-width: 0.8; stroke-linejoin: miter; stroke-linecap: square"/>
   </g>
   <g id="text_10">
    <!-- $2,700 -->
    <g style="fill: #a6adc8" transform="translate(556.34817 313.784881) scale(0.08 -0.08)">
     <defs>
      <path id="DejaVuSans-24" d="M 2163 -941
L 1850 -941
L 1847 0
Q 1519 6 1191 76
Q 863 147 531 288
L 531 850
Q 850 650 1176 548
Q 1503 447 1850 444
L 1850 1869
Q 1159 1981 845 2250
Q 531 2519 531 2988
Q 531 3497 872 3790
Q 1213 4084 1850 4128
L 1850 4863
L 2163 4863
L 2163 4138
Q 2453 4125 2725 4076
Q 2997 4028 3256 3944
L 3256 3397
Q 2997 3528 2723 3600
Q 2450 3672 2163 3684
L 2163 2350
Q 2872 2241 3206 1959
Q 3541 1678 3541 1191
Q 3541 663 3186 358
Q 2831 53 2163 6
L 2163 -941
z
M 1850 2406
L 1850 3688
Q 1488 3647 1297 3481
Q 1106 3316 1106 3041
Q 1106 2772 1282 2622
Q 1459 2472 1850 2406
z
M 2163 1806
L 2163 453
Q 2559 506 2761 678
Q 2963 850 2963 1131
Q 2963 1406 2770 1568
Q 2578 1731 2163 1806
z
" transform="scale(0.015625)"/>
      <path id="DejaVuSans-2c" d="M 750 794
L 1409 794
L 1409 256
L 897 -744
L 494 -744
L 750 256
L 750 794
z
" transform="scale(0.015625)"/>
     </defs>
     <use xlink:href="#DejaVuSans-24"/>
     <use xlink:href="#DejaVuSans-32" transform="translate(63.623047 0)"/>
     <use xlink:href="#DejaVuSans-2c" transform="translate(127.246094 0)"/>
     <use xlink:href="#DejaVuSans-37" transform="translate(159.033203 0)"/>
     <use xlink:href="#DejaVuSans-30" transform="translate(222.65625 0)"/>
     <use xlink:href="#DejaVuSans-30" transform="translate(286.279297 0)"/>
    </g>
   </g>
   <g id="text_11">
    <!-- $2,835 -->
    <g style="fill: #a6adc8" transform="translate(556.34817 253.249292) scale(0.08 -0.08)">
     <defs>
      <path id="DejaVuSans-35" d="M 691 4666
L 3169 4666
L 3169 4134
L 1269 4134
L 1269 2991
Q 1406 3038 1543 3061
Q 1681 3084 1819 3084
Q 2600 3084 3056 2656
Q 3513 2228 3513 1497
Q 3513 744 3044 326
Q 2575 -91 1722 -91
Q 1428 -91 1123 -41
Q 819 9 494 109
L 494 744
Q 775 591 1075 516
Q 1375 441 1709 441
Q 2250 441 2565 725
Q 2881 1009 2881 1497
Q 2881 1984 2565 2268
Q 2250 2553 1709 2553
Q 1456 2553 1204 2497
Q 953 2441 691 2322
L 691 4666
z
" transform="scale(0.015625)"/>
     </defs>
     <use xlink:href="#DejaVuSans-24"/>
     <use xlink:href="#DejaVuSans-32" transform="translate(63.623047 0)"/>
     <use xlink:href="#DejaVuSans-2c" transform="translate(127.246094 0)"/>
     <use xlink:href="#DejaVuSans-38" transform="translate(159.033203 0)"/>
     <use xlink:href="#DejaVuSans-33" transform="translate(222.65625 0)"/>
     <use xlink:href="#DejaVuSans-35" transform="translate(286.279297 0)"/>
    </g>
   </g>
   <g id="text_12">
    <!-- $2,975 -->
    <g style="fill: #a6adc8" transform="translate(556.34817 190.471645) scale(0.08 -0.08)">
     <use xlink:href="#DejaVuSans-24"/>
     <use xlink:href="#DejaVuSans-32" transform="translate(63.623047 0)"/>
     <use xlink:href="#DejaVuSans-2c" transform="translate(127.246094 0)"/>
     <use xlink:href="#DejaVuSans-39" transform="translate(159.033203 0)"/>
     <use xlink:href="#DejaVuSans-37" transform="translate(222.65625 0)"/>
     <use xlink:href="#DejaVuSans-35" transform="translate(286.279297 0)"/>
    </g>
   </g>
   <g id="text_13">
    <!-- $3,125 -->
    <g style="fill: #a6adc8" transform="translate(556.34817 123.209881) scale(0.08 -0.08)">
     <use xlink:href="#DejaVuSans-24"/>
     <use xlink:href="#DejaVuSans-33" transform="translate(63.623047 0)"/>
     <use xlink:href="#DejaVuSans-2c" transform="translate(127.246094 0)"/>
     <use xlink:href="#DejaVuSans-31" transform="translate(159.033203 0)"/>
     <use xlink:href="#DejaVuSans-32" transform="translate(222.65625 0)"/>
     <use xlink:href="#DejaVuSans-35" transform="translate(286.279297 0)"/>
    </g>
   </g>
   <g id="text_14">
    <!-- $3,280 -->
    <g style="fill: #a6adc8" transform="translate(556.34817 53.706057) scale(0.08 -0.08)">
     <use xlink:href="#DejaVuSans-24"/>
     <use xlink:href="#DejaVuSans-33" transform="translate(63.623047 0)"/>
     <use xlink:href="#DejaVuSans-2c" transform="translate(127.246094 0)"/>
     <use xlink:href="#DejaVuSans-32" transform="translate(159.033203 0)"/>
     <use xlink:href="#DejaVuSans-38" transform="translate(222.65625 0)"/>
     <use xlink:href="#DejaVuSans-30" transform="translate(286.279297 0)"/>
    </g>
   </g>
   <g id="line2d_13">
    <path d="M 62.435337 181.537969
L 68.304116 154.827445
L 72.216634 138.049718
L 75.151024 126.401123
L 78.085413 115.767463
L 80.041672 109.317098
L 81.997932 103.416851
L 83.954191 98.089333
L 85.91045 93.347163
L 87.86671 89.192961
L 89.822969 85.619555
L 91.779229 82.6104
L 93.735488 80.140208
L 95.691747 78.175759
L 97.648007 76.676885
L 99.604266 75.597603
L 101.560526 74.887365
L 103.516785 74.492398
L 105.473045 74.357111
L 107.429304 74.425523
L 110.363693 74.790511
L 120.14499 76.37796
L 123.079379 76.529216
L 126.013769 76.437764
L 128.948158 76.120293
L 132.860677 75.455362
L 137.751325 74.609235
L 140.685714 74.361883
L 142.641974 74.414247
L 144.598233 74.705267
L 146.554493 75.290849
L 148.510752 76.225612
L 150.467011 77.561477
L 152.423271 79.34629
L 154.37953 81.622539
L 156.33579 84.426173
L 158.292049 87.785561
L 160.248308 91.72061
L 162.204568 96.242066
L 164.160827 101.351018
L 166.117087 107.038607
L 168.073346 113.285955
L 171.007735 123.641023
L 173.942124 135.05213
L 176.876514 147.339625
L 180.789032 164.70888
L 192.526589 217.836318
L 195.460978 229.991861
L 198.395367 241.238347
L 201.329756 251.402891
L 203.286016 257.512613
L 205.242275 263.056922
L 207.198535 268.019439
L 209.154794 272.393808
L 211.111054 276.183566
L 213.067313 279.401805
L 215.023572 282.070621
L 216.979832 284.220367
L 218.936091 285.888729
L 220.892351 287.119651
L 222.84861 287.962122
L 224.804869 288.468868
L 226.761129 288.694964
L 228.717388 288.696413
L 231.651777 288.398295
L 236.542426 287.529086
L 240.454945 286.889071
L 243.389334 286.606235
L 246.323723 286.555277
L 249.258112 286.745478
L 252.192501 287.141761
L 260.995669 288.607965
L 262.951928 288.718645
L 264.908188 288.639515
L 266.864447 288.31472
L 268.820707 287.688436
L 270.776966 286.706303
L 272.733225 285.316839
L 274.689485 283.472797
L 276.645744 281.132444
L 278.602004 278.260726
L 280.558263 274.830287
L 282.514523 270.822332
L 284.470782 266.227296
L 286.427041 261.045324
L 288.383301 255.286528
L 290.33956 248.971033
L 293.273949 238.522115
L 296.208338 227.030562
L 299.142728 214.679339
L 303.055246 197.255588
L 313.814673 148.396598
L 316.749062 136.045375
L 319.683452 124.553823
L 322.617841 114.104905
L 324.5741 107.78941
L 326.53036 102.030614
L 328.486619 96.848642
L 330.442878 92.253606
L 332.399138 88.24565
L 334.355397 84.815211
L 336.311657 81.943493
L 338.267916 79.603141
L 340.224176 77.759098
L 342.180435 76.369634
L 344.136694 75.387502
L 346.092954 74.761218
L 348.049213 74.436422
L 350.005473 74.357292
L 351.961732 74.467973
L 354.896121 74.87146
L 363.699289 76.33046
L 366.633678 76.52066
L 369.568067 76.469702
L 372.502456 76.186866
L 376.414975 75.546852
L 382.283753 74.547222
L 384.240013 74.379524
L 386.196272 74.380974
L 388.152531 74.60707
L 390.108791 75.113816
L 392.06505 75.956287
L 394.02131 77.187209
L 395.977569 78.855571
L 397.933829 81.005316
L 399.890088 83.674132
L 401.846347 86.892372
L 403.802607 90.68213
L 405.758866 95.056498
L 407.715126 100.019016
L 409.671385 105.563325
L 411.627645 111.673047
L 413.583904 118.321875
L 416.518293 129.22486
L 419.452682 141.099068
L 423.365201 158.093793
L 429.233979 184.920542
L 435.102758 211.48216
L 439.015276 228.023807
L 441.949666 239.434914
L 444.884055 249.789983
L 446.840314 256.03733
L 448.796574 261.724919
L 450.752833 266.833872
L 452.709092 271.355328
L 454.665352 275.290376
L 456.621611 278.649764
L 458.577871 281.453399
L 460.53413 283.729648
L 462.49039 285.514461
L 464.446649 286.850325
L 466.402908 287.785089
L 468.359168 288.37067
L 470.315427 288.66169
L 472.271687 288.714054
L 475.206076 288.466703
L 479.118595 287.80515
L 484.009243 286.955645
L 486.943632 286.638174
L 489.878021 286.546721
L 492.812411 286.697978
L 495.7468 287.064191
L 506.506227 288.706608
L 508.462486 288.680136
L 510.418745 288.422017
L 512.375005 287.876283
L 514.331264 286.988075
L 516.287524 285.705061
L 518.243783 283.978812
L 520.200043 281.766103
L 522.156302 279.030108
L 524.112561 275.741458
L 526.068821 271.879149
L 528.02508 267.431255
L 529.98134 262.395461
L 531.937599 256.779374
L 533.893859 250.600624
L 536.828248 240.340355
L 539.762637 229.010945
L 542.697026 216.788683
L 546.609545 199.476218
L 550.522064 181.537969
L 550.522064 181.537969
" clip-path="url(#pfff507995c)" style="fill: none; stroke: #89b4fa; stroke-width: 1.8; stroke-linecap: square"/>
   </g>
   <g id="patch_7">
    <path d="M 123.079379 254.382319
Q 123.079379 281.310433 123.079379 308.238546
" style="fill: none; stroke: #f9e2af; stroke-width: 1.2; stroke-linecap: round"/>
    <path d="M 121.079379 258.382319
L 123.079379 254.382319
L 125.079379 258.382319
" style="fill: none; stroke: #f9e2af; stroke-width: 1.2; stroke-linecap: round"/>
    <path d="M 125.079379 304.238546
L 123.079379 308.238546
L 121.079379 304.238546
" style="fill: none; stroke: #f9e2af; stroke-width: 1.2; stroke-linecap: round"/>
   </g>
   <g id="text_15">
    <!-- $135 -->
    <g style="fill: #f9e2af" transform="translate(130.847521 283.379118) scale(0.075 -0.075)">
     <use xlink:href="#DejaVuSans-24"/>
     <use xlink:href="#DejaVuSans-31" transform="translate(63.623047 0)"/>
     <use xlink:href="#DejaVuSans-33" transform="translate(127.246094 0)"/>
     <use xlink:href="#DejaVuSans-35" transform="translate(190.869141 0)"/>
    </g>
   </g>
   <g id="patch_8">
    <path d="M 123.079379 191.602072
Q 123.079379 219.651321 123.079379 247.700569
" style="fill: none; stroke: #f9e2af; stroke-width: 1.2; stroke-linecap: round"/>
    <path d="M 121.079379 195.602072
L 123.079379 191.602072
L 125.079379 195.602072
" style="fill: none; stroke: #f9e2af; stroke-width: 1.2; stroke-linecap: round"/>
    <path d="M 125.079379 243.700569
L 123.079379 247.700569
L 121.079379 243.700569
" style="fill: none; stroke: #f9e2af; stroke-width: 1.2; stroke-linecap: round"/>
   </g>
   <g id="text_16">
    <!-- $140 -->
    <g style="fill: #f9e2af" transform="translate(130.847521 221.7225) scale(0.075 -0.075)">
     <defs>
      <path id="DejaVuSans-34" d="M 2419 4116
L 825 1625
L 2419 1625
L 2419 4116
z
M 2253 4666
L 3047 4666
L 3047 1625
L 3713 1625
L 3713 1100
L 3047 1100
L 3047 0
L 2419 0
L 2419 1100
L 313 1100
L 313 1709
L 2253 4666
z
" transform="scale(0.015625)"/>
     </defs>
     <use xlink:href="#DejaVuSans-24"/>
     <use xlink:href="#DejaVuSans-31" transform="translate(63.623047 0)"/>
     <use xlink:href="#DejaVuSans-34" transform="translate(127.246094 0)"/>
     <use xlink:href="#DejaVuSans-30" transform="translate(190.869141 0)"/>
    </g>
   </g>
   <g id="patch_9">
    <path d="M 123.079379 124.343318
Q 123.079379 154.63111 123.079379 184.918902
" style="fill: none; stroke: #f9e2af; stroke-width: 1.2; stroke-linecap: round"/>
    <path d="M 121.079379 128.343318
L 123.079379 124.343318
L 125.079379 128.343318
" style="fill: none; stroke: #f9e2af; stroke-width: 1.2; stroke-linecap: round"/>
    <path d="M 125.079379 180.918902
L 123.079379 184.918902
L 121.079379 180.918902
" style="fill: none; stroke: #f9e2af; stroke-width: 1.2; stroke-linecap: round"/>
   </g>
   <g id="text_17">
    <!-- $150 -->
    <g style="fill: #f9e2af" transform="translate(130.847521 156.702794) scale(0.075 -0.075)">
     <use xlink:href="#DejaVuSans-24"/>
     <use xlink:href="#DejaVuSans-31" transform="translate(63.623047 0)"/>
     <use xlink:href="#DejaVuSans-35" transform="translate(127.246094 0)"/>
     <use xlink:href="#DejaVuSans-30" transform="translate(190.869141 0)"/>
    </g>
   </g>
   <g id="patch_10">
    <path d="M 123.079379 54.838263
Q 123.079379 86.250347 123.079379 117.662431
" style="fill: none; stroke: #f9e2af; stroke-width: 1.2; stroke-linecap: round"/>
    <path d="M 121.079379 58.838263
L 123.079379 54.838263
L 125.079379 58.838263
" style="fill: none; stroke: #f9e2af; stroke-width: 1.2; stroke-linecap: round"/>
    <path d="M 125.079379 113.662431
L 123.079379 117.662431
L 121.079379 113.662431
" style="fill: none; stroke: #f9e2af; stroke-width: 1.2; stroke-linecap: round"/>
   </g>
   <g id="text_18">
    <!-- $155 -->
    <g style="fill: #f9e2af" transform="translate(130.847521 88.32) scale(0.075 -0.075)">
     <use xlink:href="#DejaVuSans-24"/>
     <use xlink:href="#DejaVuSans-31" transform="translate(63.623047 0)"/>
     <use xlink:href="#DejaVuSans-35" transform="translate(127.246094 0)"/>
     <use xlink:href="#DejaVuSans-35" transform="translate(190.869141 0)"/>
    </g>
   </g>
   <g id="text_19">
    <!-- 5% spacing — gaps grow with price -->
    <g style="fill: #f9e2af" transform="translate(92.006813 320.545616) scale(0.09 -0.09)">
     <defs>
      <path id="DejaVuSans-Bold-35" d="M 678 4666
L 3669 4666
L 3669 3781
L 1638 3781
L 1638 3059
Q 1775 3097 1914 3117
Q 2053 3138 2203 3138
Q 3056 3138 3531 2711
Q 4006 2284 4006 1522
Q 4006 766 3489 337
Q 2972 -91 2053 -91
Q 1656 -91 1267 -14
Q 878 63 494 219
L 494 1166
Q 875 947 1217 837
Q 1559 728 1863 728
Q 2300 728 2551 942
Q 2803 1156 2803 1522
Q 2803 1891 2551 2103
Q 2300 2316 1863 2316
Q 1603 2316 1309 2248
Q 1016 2181 678 2041
L 678 4666
z
" transform="scale(0.015625)"/>
      <path id="DejaVuSans-Bold-25" d="M 4959 1925
Q 4738 1925 4616 1733
Q 4494 1541 4494 1184
Q 4494 825 4614 633
Q 4734 441 4959 441
Q 5184 441 5303 633
Q 5422 825 5422 1184
Q 5422 1541 5301 1733
Q 5181 1925 4959 1925
z
M 4959 2450
Q 5541 2450 5875 2112
Q 6209 1775 6209 1184
Q 6209 594 5875 251
Q 5541 -91 4959 -91
Q 4378 -91 4042 251
Q 3706 594 3706 1184
Q 3706 1772 4042 2111
Q 4378 2450 4959 2450
z
M 2094 -91
L 1403 -91
L 4319 4750
L 5013 4750
L 2094 -91
z
M 1453 4750
Q 2034 4750 2367 4411
Q 2700 4072 2700 3481
Q 2700 2891 2367 2550
Q 2034 2209 1453 2209
Q 872 2209 539 2550
Q 206 2891 206 3481
Q 206 4072 539 4411
Q 872 4750 1453 4750
z
M 1453 4225
Q 1228 4225 1106 4031
Q 984 3838 984 3481
Q 984 3122 1106 2926
Q 1228 2731 1453 2731
Q 1678 2731 1798 2926
Q 1919 3122 1919 3481
Q 1919 3838 1797 4031
Q 1675 4225 1453 4225
z
" transform="scale(0.015625)"/>
      <path id="DejaVuSans-Bold-20" transform="scale(0.015625)"/>
      <path id="DejaVuSans-Bold-73" d="M 3272 3391
L 3272 2541
Q 2913 2691 2578 2766
Q 2244 2841 1947 2841
Q 1628 2841 1473 2761
Q 1319 2681 1319 2516
Q 1319 2381 1436 2309
Q 1553 2238 1856 2203
L 2053 2175
Q 2913 2066 3209 1816
Q 3506 1566 3506 1031
Q 3506 472 3093 190
Q 2681 -91 1863 -91
Q 1516 -91 1145 -36
Q 775 19 384 128
L 384 978
Q 719 816 1070 734
Q 1422 653 1784 653
Q 2113 653 2278 743
Q 2444 834 2444 1013
Q 2444 1163 2330 1236
Q 2216 1309 1875 1350
L 1678 1375
Q 931 1469 631 1722
Q 331 1975 331 2491
Q 331 3047 712 3315
Q 1094 3584 1881 3584
Q 2191 3584 2531 3537
Q 2872 3491 3272 3391
z
" transform="scale(0.015625)"/>
      <path id="DejaVuSans-Bold-70" d="M 1656 506
L 1656 -1331
L 538 -1331
L 538 3500
L 1656 3500
L 1656 2988
Q 1888 3294 2169 3439
Q 2450 3584 2816 3584
Q 3463 3584 3878 3070
Q 4294 2556 4294 1747
Q 4294 938 3878 423
Q 3463 -91 2816 -91
Q 2450 -91 2169 54
Q 1888 200 1656 506
z
M 2400 2772
Q 2041 2772 1848 2508
Q 1656 2244 1656 1747
Q 1656 1250 1848 986
Q 2041 722 2400 722
Q 2759 722 2948 984
Q 3138 1247 3138 1747
Q 3138 2247 2948 2509
Q 2759 2772 2400 2772
z
" transform="scale(0.015625)"/>
      <path id="DejaVuSans-Bold-61" d="M 2106 1575
Q 1756 1575 1579 1456
Q 1403 1338 1403 1106
Q 1403 894 1545 773
Q 1688 653 1941 653
Q 2256 653 2472 879
Q 2688 1106 2688 1447
L 2688 1575
L 2106 1575
z
M 3816 1997
L 3816 0
L 2688 0
L 2688 519
Q 2463 200 2181 54
Q 1900 -91 1497 -91
Q 953 -91 614 226
Q 275 544 275 1050
Q 275 1666 698 1953
Q 1122 2241 2028 2241
L 2688 2241
L 2688 2328
Q 2688 2594 2478 2717
Q 2269 2841 1825 2841
Q 1466 2841 1156 2769
Q 847 2697 581 2553
L 581 3406
Q 941 3494 1303 3539
Q 1666 3584 2028 3584
Q 2975 3584 3395 3211
Q 3816 2838 3816 1997
z
" transform="scale(0.015625)"/>
      <path id="DejaVuSans-Bold-63" d="M 3366 3391
L 3366 2478
Q 3138 2634 2908 2709
Q 2678 2784 2431 2784
Q 1963 2784 1702 2511
Q 1441 2238 1441 1747
Q 1441 1256 1702 982
Q 1963 709 2431 709
Q 2694 709 2930 787
Q 3166 866 3366 1019
L 3366 103
Q 3103 6 2833 -42
Q 2563 -91 2291 -91
Q 1344 -91 809 395
Q 275 881 275 1747
Q 275 2613 809 3098
Q 1344 3584 2291 3584
Q 2566 3584 2833 3536
Q 3100 3488 3366 3391
z
" transform="scale(0.015625)"/>
      <path id="DejaVuSans-Bold-69" d="M 538 3500
L 1656 3500
L 1656 0
L 538 0
L 538 3500
z
M 538 4863
L 1656 4863
L 1656 3950
L 538 3950
L 538 4863
z
" transform="scale(0.015625)"/>
      <path id="DejaVuSans-Bold-6e" d="M 4056 2131
L 4056 0
L 2931 0
L 2931 347
L 2931 1631
Q 2931 2084 2911 2256
Q 2891 2428 2841 2509
Q 2775 2619 2662 2680
Q 2550 2741 2406 2741
Q 2056 2741 1856 2470
Q 1656 2200 1656 1722
L 1656 0
L 538 0
L 538 3500
L 1656 3500
L 1656 2988
Q 1909 3294 2193 3439
Q 2478 3584 2822 3584
Q 3428 3584 3742 3212
Q 4056 2841 4056 2131
z
" transform="scale(0.015625)"/>
      <path id="DejaVuSans-Bold-67" d="M 2919 594
Q 2688 288 2409 144
Q 2131 0 1766 0
Q 1125 0 706 504
Q 288 1009 288 1791
Q 288 2575 706 3076
Q 1125 3578 1766 3578
Q 2131 3578 2409 3434
Q 2688 3291 2919 2981
L 2919 3500
L 4044 3500
L 4044 353
Q 4044 -491 3511 -936
Q 2978 -1381 1966 -1381
Q 1638 -1381 1331 -1331
Q 1025 -1281 716 -1178
L 716 -306
Q 1009 -475 1290 -558
Q 1572 -641 1856 -641
Q 2406 -641 2662 -400
Q 2919 -159 2919 353
L 2919 594
z
M 2181 2772
Q 1834 2772 1640 2515
Q 1447 2259 1447 1791
Q 1447 1309 1634 1061
Q 1822 813 2181 813
Q 2531 813 2725 1069
Q 2919 1325 2919 1791
Q 2919 2259 2725 2515
Q 2531 2772 2181 2772
z
" transform="scale(0.015625)"/>
      <path id="DejaVuSans-Bold-2014" d="M 344 2156
L 6056 2156
L 6056 1350
L 344 1350
L 344 2156
z
" transform="scale(0.015625)"/>
      <path id="DejaVuSans-Bold-72" d="M 3138 2547
Q 2991 2616 2845 2648
Q 2700 2681 2553 2681
Q 2122 2681 1889 2404
Q 1656 2128 1656 1613
L 1656 0
L 538 0
L 538 3500
L 1656 3500
L 1656 2925
Q 1872 3269 2151 3426
Q 2431 3584 2822 3584
Q 2878 3584 2943 3579
Q 3009 3575 3134 3559
L 3138 2547
z
" transform="scale(0.015625)"/>
      <path id="DejaVuSans-Bold-6f" d="M 2203 2784
Q 1831 2784 1636 2517
Q 1441 2250 1441 1747
Q 1441 1244 1636 976
Q 1831 709 2203 709
Q 2569 709 2762 976
Q 2956 1244 2956 1747
Q 2956 2250 2762 2517
Q 2569 2784 2203 2784
z
M 2203 3584
Q 3106 3584 3614 3096
Q 4122 2609 4122 1747
Q 4122 884 3614 396
Q 3106 -91 2203 -91
Q 1297 -91 786 396
Q 275 884 275 1747
Q 275 2609 786 3096
Q 1297 3584 2203 3584
z
" transform="scale(0.015625)"/>
      <path id="DejaVuSans-Bold-77" d="M 225 3500
L 1313 3500
L 1900 1088
L 2491 3500
L 3425 3500
L 4013 1113
L 4603 3500
L 5691 3500
L 4769 0
L 3547 0
L 2956 2406
L 2369 0
L 1147 0
L 225 3500
z
" transform="scale(0.015625)"/>
      <path id="DejaVuSans-Bold-74" d="M 1759 4494
L 1759 3500
L 2913 3500
L 2913 2700
L 1759 2700
L 1759 1216
Q 1759 972 1856 886
Q 1953 800 2241 800
L 2816 800
L 2816 0
L 1856 0
Q 1194 0 917 276
Q 641 553 641 1216
L 641 2700
L 84 2700
L 84 3500
L 641 3500
L 641 4494
L 1759 4494
z
" transform="scale(0.015625)"/>
      <path id="DejaVuSans-Bold-68" d="M 4056 2131
L 4056 0
L 2931 0
L 2931 347
L 2931 1625
Q 2931 2084 2911 2256
Q 2891 2428 2841 2509
Q 2775 2619 2662 2680
Q 2550 2741 2406 2741
Q 2056 2741 1856 2470
Q 1656 2200 1656 1722
L 1656 0
L 538 0
L 538 4863
L 1656 4863
L 1656 2988
Q 1909 3294 2193 3439
Q 2478 3584 2822 3584
Q 3428 3584 3742 3212
Q 4056 2841 4056 2131
z
" transform="scale(0.015625)"/>
      <path id="DejaVuSans-Bold-65" d="M 4031 1759
L 4031 1441
L 1416 1441
Q 1456 1047 1700 850
Q 1944 653 2381 653
Q 2734 653 3104 758
Q 3475 863 3866 1075
L 3866 213
Q 3469 63 3072 -14
Q 2675 -91 2278 -91
Q 1328 -91 801 392
Q 275 875 275 1747
Q 275 2603 792 3093
Q 1309 3584 2216 3584
Q 3041 3584 3536 3087
Q 4031 2591 4031 1759
z
M 2881 2131
Q 2881 2450 2695 2645
Q 2509 2841 2209 2841
Q 1884 2841 1681 2658
Q 1478 2475 1428 2131
L 2881 2131
z
" transform="scale(0.015625)"/>
     </defs>
     <use xlink:href="#DejaVuSans-Bold-35"/>
     <use xlink:href="#DejaVuSans-Bold-25" transform="translate(69.580078 0)"/>
     <use xlink:href="#DejaVuSans-Bold-20" transform="translate(169.775391 0)"/>
     <use xlink:href="#DejaVuSans-Bold-73" transform="translate(204.589844 0)"/>
     <use xlink:href="#DejaVuSans-Bold-70" transform="translate(264.111328 0)"/>
     <use xlink:href="#DejaVuSans-Bold-61" transform="translate(335.693359 0)"/>
     <use xlink:href="#DejaVuSans-Bold-63" transform="translate(403.173828 0)"/>
     <use xlink:href="#DejaVuSans-Bold-69" transform="translate(462.451172 0)"/>
     <use xlink:href="#DejaVuSans-Bold-6e" transform="translate(496.728516 0)"/>
     <use xlink:href="#DejaVuSans-Bold-67" transform="translate(567.919922 0)"/>
     <use xlink:href="#DejaVuSans-Bold-20" transform="translate(639.501953 0)"/>
     <use xlink:href="#DejaVuSans-Bold-2014" transform="translate(674.316406 0)"/>
     <use xlink:href="#DejaVuSans-Bold-20" transform="translate(774.316406 0)"/>
     <use xlink:href="#DejaVuSans-Bold-67" transform="translate(809.130859 0)"/>
     <use xlink:href="#DejaVuSans-Bold-61" transform="translate(880.712891 0)"/>
     <use xlink:href="#DejaVuSans-Bold-70" transform="translate(948.193359 0)"/>
     <use xlink:href="#DejaVuSans-Bold-73" transform="translate(1019.775391 0)"/>
     <use xlink:href="#DejaVuSans-Bold-20" transform="translate(1079.296875 0)"/>
     <use xlink:href="#DejaVuSans-Bold-67" transform="translate(1114.111328 0)"/>
     <use xlink:href="#DejaVuSans-Bold-72" transform="translate(1185.693359 0)"/>
     <use xlink:href="#DejaVuSans-Bold-6f" transform="translate(1235.009766 0)"/>
     <use xlink:href="#DejaVuSans-Bold-77" transform="translate(1303.710938 0)"/>
     <use xlink:href="#DejaVuSans-Bold-20" transform="translate(1396.09375 0)"/>
     <use xlink:href="#DejaVuSans-Bold-77" transform="translate(1430.908203 0)"/>
     <use xlink:href="#DejaVuSans-Bold-69" transform="translate(1523.291016 0)"/>
     <use xlink:href="#DejaVuSans-Bold-74" transform="translate(1557.568359 0)"/>
     <use xlink:href="#DejaVuSans-Bold-68" transform="translate(1605.371094 0)"/>
     <use xlink:href="#DejaVuSans-Bold-20" transform="translate(1676.5625 0)"/>
     <use xlink:href="#DejaVuSans-Bold-70" transform="translate(1711.376953 0)"/>
     <use xlink:href="#DejaVuSans-Bold-72" transform="translate(1782.958984 0)"/>
     <use xlink:href="#DejaVuSans-Bold-69" transform="translate(1832.275391 0)"/>
     <use xlink:href="#DejaVuSans-Bold-63" transform="translate(1866.552734 0)"/>
     <use xlink:href="#DejaVuSans-Bold-65" transform="translate(1925.830078 0)"/>
    </g>
   </g>
   <g id="text_20">
    <!-- Geometric Grid — Proportional Spacing (5%) -->
    <g style="fill: #cdd6f4" transform="translate(166.902266 17.077969) scale(0.13 -0.13)">
     <defs>
      <path id="DejaVuSans-Bold-47" d="M 4781 347
Q 4331 128 3847 18
Q 3363 -91 2847 -91
Q 1681 -91 1000 561
Q 319 1213 319 2328
Q 319 3456 1012 4103
Q 1706 4750 2913 4750
Q 3378 4750 3804 4662
Q 4231 4575 4609 4403
L 4609 3438
Q 4219 3659 3833 3768
Q 3447 3878 3059 3878
Q 2341 3878 1952 3476
Q 1563 3075 1563 2328
Q 1563 1588 1938 1184
Q 2313 781 3003 781
Q 3191 781 3352 804
Q 3513 828 3641 878
L 3641 1784
L 2906 1784
L 2906 2591
L 4781 2591
L 4781 347
z
" transform="scale(0.015625)"/>
      <path id="DejaVuSans-Bold-6d" d="M 3781 2919
Q 3994 3244 4286 3414
Q 4578 3584 4928 3584
Q 5531 3584 5847 3212
Q 6163 2841 6163 2131
L 6163 0
L 5038 0
L 5038 1825
Q 5041 1866 5042 1909
Q 5044 1953 5044 2034
Q 5044 2406 4934 2573
Q 4825 2741 4581 2741
Q 4263 2741 4089 2478
Q 3916 2216 3909 1719
L 3909 0
L 2784 0
L 2784 1825
Q 2784 2406 2684 2573
Q 2584 2741 2328 2741
Q 2006 2741 1831 2477
Q 1656 2213 1656 1722
L 1656 0
L 531 0
L 531 3500
L 1656 3500
L 1656 2988
Q 1863 3284 2130 3434
Q 2397 3584 2719 3584
Q 3081 3584 3359 3409
Q 3638 3234 3781 2919
z
" transform="scale(0.015625)"/>
      <path id="DejaVuSans-Bold-64" d="M 2919 2988
L 2919 4863
L 4044 4863
L 4044 0
L 2919 0
L 2919 506
Q 2688 197 2409 53
Q 2131 -91 1766 -91
Q 1119 -91 703 423
Q 288 938 288 1747
Q 288 2556 703 3070
Q 1119 3584 1766 3584
Q 2128 3584 2408 3439
Q 2688 3294 2919 2988
z
M 2181 722
Q 2541 722 2730 984
Q 2919 1247 2919 1747
Q 2919 2247 2730 2509
Q 2541 2772 2181 2772
Q 1825 2772 1636 2509
Q 1447 2247 1447 1747
Q 1447 1247 1636 984
Q 1825 722 2181 722
z
" transform="scale(0.015625)"/>
      <path id="DejaVuSans-Bold-50" d="M 588 4666
L 2584 4666
Q 3475 4666 3951 4270
Q 4428 3875 4428 3144
Q 4428 2409 3951 2014
Q 3475 1619 2584 1619
L 1791 1619
L 1791 0
L 588 0
L 588 4666
z
M 1791 3794
L 1791 2491
L 2456 2491
Q 2806 2491 2997 2661
Q 3188 2831 3188 3144
Q 3188 3456 2997 3625
Q 2806 3794 2456 3794
L 1791 3794
z
" transform="scale(0.015625)"/>
      <path id="DejaVuSans-Bold-6c" d="M 538 4863
L 1656 4863
L 1656 0
L 538 0
L 538 4863
z
" transform="scale(0.015625)"/>
      <path id="DejaVuSans-Bold-53" d="M 3834 4519
L 3834 3531
Q 3450 3703 3084 3790
Q 2719 3878 2394 3878
Q 1963 3878 1756 3759
Q 1550 3641 1550 3391
Q 1550 3203 1689 3098
Q 1828 2994 2194 2919
L 2706 2816
Q 3484 2659 3812 2340
Q 4141 2022 4141 1434
Q 4141 663 3683 286
Q 3225 -91 2284 -91
Q 1841 -91 1394 -6
Q 947 78 500 244
L 500 1259
Q 947 1022 1364 901
Q 1781 781 2169 781
Q 2563 781 2772 912
Q 2981 1044 2981 1288
Q 2981 1506 2839 1625
Q 2697 1744 2272 1838
L 1806 1941
Q 1106 2091 782 2419
Q 459 2747 459 3303
Q 459 4000 909 4375
Q 1359 4750 2203 4750
Q 2588 4750 2994 4692
Q 3400 4634 3834 4519
z
" transform="scale(0.015625)"/>
      <path id="DejaVuSans-Bold-28" d="M 2413 -844
L 1484 -844
Q 1006 -72 778 623
Q 550 1319 550 2003
Q 550 2688 779 3389
Q 1009 4091 1484 4856
L 2413 4856
Q 2013 4116 1813 3408
Q 1613 2700 1613 2009
Q 1613 1319 1811 609
Q 2009 -100 2413 -844
z
" transform="scale(0.015625)"/>
      <path id="DejaVuSans-Bold-29" d="M 513 -844
Q 913 -100 1113 609
Q 1313 1319 1313 2009
Q 1313 2700 1113 3408
Q 913 4116 513 4856
L 1441 4856
Q 1916 4091 2145 3389
Q 2375 2688 2375 2003
Q 2375 1319 2147 623
Q 1919 -72 1441 -844
L 513 -844
z
" transform="scale(0.015625)"/>
     </defs>
     <use xlink:href="#DejaVuSans-Bold-47"/>
     <use xlink:href="#DejaVuSans-Bold-65" transform="translate(82.080078 0)"/>
     <use xlink:href="#DejaVuSans-Bold-6f" transform="translate(149.902344 0)"/>
     <use xlink:href="#DejaVuSans-Bold-6d" transform="translate(218.603516 0)"/>
     <use xlink:href="#DejaVuSans-Bold-65" transform="translate(322.802734 0)"/>
     <use xlink:href="#DejaVuSans-Bold-74" transform="translate(390.625 0)"/>
     <use xlink:href="#DejaVuSans-Bold-72" transform="translate(438.427734 0)"/>
     <use xlink:href="#DejaVuSans-Bold-69" transform="translate(487.744141 0)"/>
     <use xlink:href="#DejaVuSans-Bold-63" transform="translate(522.021484 0)"/>
     <use xlink:href="#DejaVuSans-Bold-20" transform="translate(581.298828 0)"/>
     <use xlink:href="#DejaVuSans-Bold-47" transform="translate(616.113281 0)"/>
     <use xlink:href="#DejaVuSans-Bold-72" transform="translate(698.193359 0)"/>
     <use xlink:href="#DejaVuSans-Bold-69" transform="translate(747.509766 0)"/>
     <use xlink:href="#DejaVuSans-Bold-64" transform="translate(781.787109 0)"/>
     <use xlink:href="#DejaVuSans-Bold-20" transform="translate(853.369141 0)"/>
     <use xlink:href="#DejaVuSans-Bold-2014" transform="translate(888.183594 0)"/>
     <use xlink:href="#DejaVuSans-Bold-20" transform="translate(988.183594 0)"/>
     <use xlink:href="#DejaVuSans-Bold-50" transform="translate(1022.998047 0)"/>
     <use xlink:href="#DejaVuSans-Bold-72" transform="translate(1096.289062 0)"/>
     <use xlink:href="#DejaVuSans-Bold-6f" transform="translate(1145.605469 0)"/>
     <use xlink:href="#DejaVuSans-Bold-70" transform="translate(1214.306641 0)"/>
     <use xlink:href="#DejaVuSans-Bold-6f" transform="translate(1285.888672 0)"/>
     <use xlink:href="#DejaVuSans-Bold-72" transform="translate(1354.589844 0)"/>
     <use xlink:href="#DejaVuSans-Bold-74" transform="translate(1403.90625 0)"/>
     <use xlink:href="#DejaVuSans-Bold-69" transform="translate(1451.708984 0)"/>
     <use xlink:href="#DejaVuSans-Bold-6f" transform="translate(1485.986328 0)"/>
     <use xlink:href="#DejaVuSans-Bold-6e" transform="translate(1554.6875 0)"/>
     <use xlink:href="#DejaVuSans-Bold-61" transform="translate(1625.878906 0)"/>
     <use xlink:href="#DejaVuSans-Bold-6c" transform="translate(1693.359375 0)"/>
     <use xlink:href="#DejaVuSans-Bold-20" transform="translate(1727.636719 0)"/>
     <use xlink:href="#DejaVuSans-Bold-53" transform="translate(1762.451172 0)"/>
     <use xlink:href="#DejaVuSans-Bold-70" transform="translate(1834.472656 0)"/>
     <use xlink:href="#DejaVuSans-Bold-61" transform="translate(1906.054688 0)"/>
     <use xlink:href="#DejaVuSans-Bold-63" transform="translate(1973.535156 0)"/>
     <use xlink:href="#DejaVuSans-Bold-69" transform="translate(2032.8125 0)"/>
     <use xlink:href="#DejaVuSans-Bold-6e" transform="translate(2067.089844 0)"/>
     <use xlink:href="#DejaVuSans-Bold-67" transform="translate(2138.28125 0)"/>
     <use xlink:href="#DejaVuSans-Bold-20" transform="translate(2209.863281 0)"/>
     <use xlink:href="#DejaVuSans-Bold-28" transform="translate(2244.677734 0)"/>
     <use xlink:href="#DejaVuSans-Bold-35" transform="translate(2290.380859 0)"/>
     <use xlink:href="#DejaVuSans-Bold-25" transform="translate(2359.960938 0)"/>
     <use xlink:href="#DejaVuSans-Bold-29" transform="translate(2460.15625 0)"/>
    </g>
   </g>
   <g id="PathCollection_1">
    <path d="M 201.329756 246.858492
L 197.146456 255.225092
L 205.513057 255.225092
z
" clip-path="url(#pfff507995c)" style="fill: #a6e3a1"/>
    <path d="M 445.862184 246.858492
L 441.678884 255.225092
L 450.045485 255.225092
z
" clip-path="url(#pfff507995c)" style="fill: #a6e3a1"/>
    <path d="M 186.657811 184.080845
L 182.474511 192.447445
L 190.841111 192.447445
z
" clip-path="url(#pfff507995c)" style="fill: #a6e3a1"/>
    <path d="M 430.212109 184.080845
L 426.028809 192.447445
L 434.395409 192.447445
z
" clip-path="url(#pfff507995c)" style="fill: #a6e3a1"/>
    <path d="M 171.007735 116.81908
L 166.824435 125.185681
L 175.191035 125.185681
z
" clip-path="url(#pfff507995c)" style="fill: #a6e3a1"/>
    <path d="M 414.562034 116.81908
L 410.378734 125.185681
L 418.745334 125.185681
z
" clip-path="url(#pfff507995c)" style="fill: #a6e3a1"/>
   </g>
   <g id="PathCollection_2">
    <path d="M 290.33956 255.225092
L 294.52286 246.858492
L 286.15626 246.858492
z
" clip-path="url(#pfff507995c)" style="fill: #f38ba8"/>
    <path d="M 533.893859 255.225092
L 538.077159 246.858492
L 529.710558 246.858492
z
" clip-path="url(#pfff507995c)" style="fill: #f38ba8"/>
    <path d="M 305.989636 192.447445
L 310.172936 184.080845
L 301.806335 184.080845
z
" clip-path="url(#pfff507995c)" style="fill: #f38ba8"/>
    <path d="M 549.543934 192.447445
L 553.727234 184.080845
L 545.360634 184.080845
z
" clip-path="url(#pfff507995c)" style="fill: #f38ba8"/>
    <path d="M 77.107283 125.185681
L 81.290583 116.81908
L 72.923983 116.81908
z
" clip-path="url(#pfff507995c)" style="fill: #f38ba8"/>
    <path d="M 320.661581 125.185681
L 324.844881 116.81908
L 316.478281 116.81908
z
" clip-path="url(#pfff507995c)" style="fill: #f38ba8"/>
   </g>
   <g id="legend_1">
    <g id="patch_11">
     <path d="M 551.727344 75.908906
L 602.483125 75.908906
Q 604.283125 75.908906 604.283125 74.108906
L 604.283125 35.377969
Q 604.283125 33.577969 602.483125 33.577969
L 551.727344 33.577969
Q 549.927344 33.577969 549.927344 35.377969
L 549.927344 74.108906
Q 549.927344 75.908906 551.727344 75.908906
z
" style="fill: #313244; opacity: 0.8; stroke: #6c7086; stroke-linejoin: miter"/>
    </g>
    <g id="line2d_14">
     <path d="M 553.527344 40.866562
L 562.527344 40.866562
L 571.527344 40.866562
" style="fill: none; stroke: #89b4fa; stroke-width: 1.8; stroke-linecap: square"/>
    </g>
    <g id="text_21">
     <!-- Price -->
     <g style="fill: #cdd6f4" transform="translate(578.727344 44.016562) scale(0.09 -0.09)">
      <use xlink:href="#DejaVuSans-50"/>
      <use xlink:href="#DejaVuSans-72" transform="translate(58.552734 0)"/>
      <use xlink:href="#DejaVuSans-69" transform="translate(99.666016 0)"/>
      <use xlink:href="#DejaVuSans-63" transform="translate(127.449219 0)"/>
      <use xlink:href="#DejaVuSans-65" transform="translate(182.429688 0)"/>
     </g>
    </g>
    <g id="PathCollection_3">
     <path d="M 562.527344 50.681075
L 558.344044 59.047675
L 566.710644 59.047675
z
" style="fill: #a6e3a1"/>
    </g>
    <g id="text_22">
     <!-- Buy -->
     <g style="fill: #cdd6f4" transform="translate(578.727344 57.226875) scale(0.09 -0.09)">
      <defs>
       <path id="DejaVuSans-42" d="M 1259 2228
L 1259 519
L 2272 519
Q 2781 519 3026 730
Q 3272 941 3272 1375
Q 3272 1813 3026 2020
Q 2781 2228 2272 2228
L 1259 2228
z
M 1259 4147
L 1259 2741
L 2194 2741
Q 2656 2741 2882 2914
Q 3109 3088 3109 3444
Q 3109 3797 2882 3972
Q 2656 4147 2194 4147
L 1259 4147
z
M 628 4666
L 2241 4666
Q 2963 4666 3353 4366
Q 3744 4066 3744 3513
Q 3744 3084 3544 2831
Q 3344 2578 2956 2516
Q 3422 2416 3680 2098
Q 3938 1781 3938 1306
Q 3938 681 3513 340
Q 3088 0 2303 0
L 628 0
L 628 4666
z
" transform="scale(0.015625)"/>
       <path id="DejaVuSans-75" d="M 544 1381
L 544 3500
L 1119 3500
L 1119 1403
Q 1119 906 1312 657
Q 1506 409 1894 409
Q 2359 409 2629 706
Q 2900 1003 2900 1516
L 2900 3500
L 3475 3500
L 3475 0
L 2900 0
L 2900 538
Q 2691 219 2414 64
Q 2138 -91 1772 -91
Q 1169 -91 856 284
Q 544 659 544 1381
z
M 1991 3584
L 1991 3584
z
" transform="scale(0.015625)"/>
       <path id="DejaVuSans-79" d="M 2059 -325
Q 1816 -950 1584 -1140
Q 1353 -1331 966 -1331
L 506 -1331
L 506 -850
L 844 -850
Q 1081 -850 1212 -737
Q 1344 -625 1503 -206
L 1606 56
L 191 3500
L 800 3500
L 1894 763
L 2988 3500
L 3597 3500
L 2059 -325
z
" transform="scale(0.015625)"/>
      </defs>
      <use xlink:href="#DejaVuSans-42"/>
      <use xlink:href="#DejaVuSans-75" transform="translate(68.603516 0)"/>
      <use xlink:href="#DejaVuSans-79" transform="translate(131.982422 0)"/>
     </g>
    </g>
    <g id="PathCollection_4">
     <path d="M 562.527344 72.257988
L 566.710644 63.891387
L 558.344044 63.891387
z
" style="fill: #f38ba8"/>
    </g>
    <g id="text_23">
     <!-- Sell -->
     <g style="fill: #cdd6f4" transform="translate(578.727344 70.437187) scale(0.09 -0.09)">
      <defs>
       <path id="DejaVuSans-6c" d="M 603 4863
L 1178 4863
L 1178 0
L 603 0
L 603 4863
z
" transform="scale(0.015625)"/>
      </defs>
      <use xlink:href="#DejaVuSans-53"/>
      <use xlink:href="#DejaVuSans-65" transform="translate(63.476562 0)"/>
      <use xlink:href="#DejaVuSans-6c" transform="translate(125 0)"/>
      <use xlink:href="#DejaVuSans-6c" transform="translate(152.783203 0)"/>
     </g>
    </g>
   </g>
  </g>
 </g>
 <defs>
  <clipPath id="pfff507995c">
   <rect x="50.783125" y="29.077969" width="558" height="304.92"/>
  </clipPath>
 </defs>
</svg>
