<?xml version="1.0" encoding="utf-8" standalone="no"?>
<!DOCTYPE svg PUBLIC "-//W3C//DTD SVG 1.1//EN"
  "http://www.w3.org/Graphics/SVG/1.1/DTD/svg11.dtd">
<svg xmlns:xlink="http://www.w3.org/1999/xlink" width="615.983125pt" height="354.876094pt" viewBox="0 0 615.983125 354.876094" xmlns="http://www.w3.org/2000/svg" version="1.1">
 <metadata>
  <rdf:RDF xmlns:dc="http://purl.org/dc/elements/1.1/" xmlns:cc="http://creativecommons.org/ns#" xmlns:rdf="http://www.w3.org/1999/02/22-rdf-syntax-ns#">
   <cc:Work>
    <dc:type rdf:resource="http://purl.org/dc/dcmitype/StillImage"/>
    <dc:date>2026-02-24T14:22:27.048395</dc:date>
    <dc:format>image/svg+xml</dc:format>
    <dc:creator>
     <cc:Agent>
      <dc:title>Matplotlib v3.10.8, https://matplotlib.org/</dc:title>
     </cc:Agent>
    </dc:creator>
   </cc:Work>
  </rdf:RDF>
 </metadata>
 <defs>
  <style type="text/css">*{stroke-linejoin: round; stroke-linecap: butt}</style>
 </defs>
 <g id="figure_1">
  <g id="patch_1">
   <path d="M 0 354.876094
L 615.983125 354.876094
L 615.983125 0
L 0 0
z
" style="fill: #1e1e2e"/>
  </g>
  <g id="axes_1">
   <g id="patch_2">
    <path d="M 50.783125 333.997969
L 608.783125 333.997969
L 608.783125 29.077969
L 50.783125 29.077969
z
" style="fill: #1e1e2e"/>
   </g>
   <g id="matplotlib.axis_1">
    <g id="text_1">
     <!-- Time -->
     <g style="fill: #cdd6f4" transform="translate(317.549531 345.596406) scale(0.1 -0.1)">
      <defs>
       <path id="DejaVuSans-54" d="M -19 4666
L 3928 4666
L 3928 4134
L 2272 4134
L 2272 0
L 1638 0
L 1638 4134
L -19 4134
L -19 4666
z
" transform="scale(0.015625)"/>
       <path id="DejaVuSans-69" d="M 603 3500
L 1178 3500
L 1178 0
L 603 0
L 603 3500
z
M 603 4863
L 1178 4863
L 1178 4134
L 603 4134
L 603 4863
z
" transform="scale(0.015625)"/>
       <path id="DejaVuSans-6d" d="M 3328 2828
Q 3544 3216 3844 3400
Q 4144 3584 4550 3584
Q 5097 3584 5394 3201
Q 5691 2819 5691 2113
L 5691 0
L 5113 0
L 5113 2094
Q 5113 2597 4934 2840
Q 4756 3084 4391 3084
Q 3944 3084 3684 2787
Q 3425 2491 3425 1978
L 3425 0
L 2847 0
L 2847 2094
Q 2847 2600 2669 2842
Q 2491 3084 2119 3084
Q 1678 3084 1418 2786
Q 1159 2488 1159 1978
L 1159 0
L 581 0
L 581 3500
L 1159 3500
L 1159 2956
Q 1356 3278 1631 3431
Q 1906 3584 2284 3584
Q 2666 3584 2933 3390
Q 3200 3197 3328 2828
z
" transform="scale(0.015625)"/>
       <path id="DejaVuSans-65" d="M 3597 1894
L 3597 1613
L 953 1613
Q 991 1019 1311 708
Q 1631 397 2203 397
Q 2534 397 2845 478
Q 3156 559 3463 722
L 3463 178
Q 3153 47 2828 -22
Q 2503 -91 2169 -91
Q 1331 -91 842 396
Q 353 884 353 1716
Q 353 2575 817 3079
Q 1281 3584 2069 3584
Q 2775 3584 3186 3129
Q 3597 2675 3597 1894
z
M 3022 2063
Q 3016 2534 2758 2815
Q 2500 3097 2075 3097
Q 1594 3097 1305 2825
Q 1016 2553 972 2059
L 3022 2063
z
" transform="scale(0.015625)"/>
      </defs>
      <use xlink:href="#DejaVuSans-54"/>
      <use xlink:href="#DejaVuSans-69" transform="translate(57.958984 0)"/>
      <use xlink:href="#DejaVuSans-6d" transform="translate(85.742188 0)"/>
      <use xlink:href="#DejaVuSans-65" transform="translate(183.154297 0)"/>
     </g>
    </g>
   </g>
   <g id="matplotlib.axis_2">
    <g id="ytick_1">
     <g id="line2d_1">
      <defs>
       <path id="m0eef37b094" d="M 0 0
L -3.5 0
" style="stroke: #a6adc8; stroke-width: 0.8"/>
      </defs>
      <g>
       <use xlink:href="#m0eef37b094" x="50.783125" y="333.997969" style="fill: #a6adc8; stroke: #a6adc8; stroke-width: 0.8"/>
      </g>
     </g>
     <g id="text_2">
      <!-- 2900 -->
      <g style="fill: #a6adc8" transform="translate(20.878125 337.417266) scale(0.09 -0.09)">
       <defs>
        <path id="DejaVuSans-32" d="M 1228 531
L 3431 531
L 3431 0
L 469 0
L 469 531
Q 828 903 1448 1529
Q 2069 2156 2228 2338
Q 2531 2678 2651 2914
Q 2772 3150 2772 3378
Q 2772 3750 2511 3984
Q 2250 4219 1831 4219
Q 1534 4219 1204 4116
Q 875 4013 500 3803
L 500 4441
Q 881 4594 1212 4672
Q 1544 4750 1819 4750
Q 2544 4750 2975 4387
Q 3406 4025 3406 3419
Q 3406 3131 3298 2873
Q 3191 2616 2906 2266
Q 2828 2175 2409 1742
Q 1991 1309 1228 531
z
" transform="scale(0.015625)"/>
        <path id="DejaVuSans-39" d="M 703 97
L 703 672
Q 941 559 1184 500
Q 1428 441 1663 441
Q 2288 441 2617 861
Q 2947 1281 2994 2138
Q 2813 1869 2534 1725
Q 2256 1581 1919 1581
Q 1219 1581 811 2004
Q 403 2428 403 3163
Q 403 3881 828 4315
Q 1253 4750 1959 4750
Q 2769 4750 3195 4129
Q 3622 3509 3622 2328
Q 3622 1225 3098 567
Q 2575 -91 1691 -91
Q 1453 -91 1209 -44
Q 966 3 703 97
z
M 1959 2075
Q 2384 2075 2632 2365
Q 2881 2656 2881 3163
Q 2881 3666 2632 3958
Q 2384 4250 1959 4250
Q 1534 4250 1286 3958
Q 1038 3666 1038 3163
Q 1038 2656 1286 2365
Q 1534 2075 1959 2075
z
" transform="scale(0.015625)"/>
        <path id="DejaVuSans-30" d="M 2034 4250
Q 1547 4250 1301 3770
Q 1056 3291 1056 2328
Q 1056 1369 1301 889
Q 1547 409 2034 409
Q 2525 409 2770 889
Q 3016 1369 3016 2328
Q 3016 3291 2770 3770
Q 2525 4250 2034 4250
z
M 2034 4750
Q 2819 4750 3233 4129
Q 3647 3509 3647 2328
Q 3647 1150 3233 529
Q 2819 -91 2034 -91
Q 1250 -91 836 529
Q 422 1150 422 2328
Q 422 3509 836 4129
Q 1250 4750 2034 4750
z
" transform="scale(0.015625)"/>
       </defs>
       <use xlink:href="#DejaVuSans-32"/>
       <use xlink:href="#DejaVuSans-39" transform="translate(63.623047 0)"/>
       <use xlink:href="#DejaVuSans-30" transform="translate(127.246094 0)"/>
       <use xlink:href="#DejaVuSans-30" transform="translate(190.869141 0)"/>
      </g>
     </g>
    </g>
    <g id="ytick_2">
     <g id="line2d_2">
      <g>
       <use xlink:href="#m0eef37b094" x="50.783125" y="295.882969" style="fill: #a6adc8; stroke: #a6adc8; stroke-width: 0.8"/>
      </g>
     </g>
     <g id="text_3">
      <!-- 2925 -->
      <g style="fill: #a6adc8" transform="translate(20.878125 299.302266) scale(0.09 -0.09)">
       <defs>
        <path id="DejaVuSans-35" d="M 691 4666
L 3169 4666
L 3169 4134
L 1269 4134
L 1269 2991
Q 1406 3038 1543 3061
Q 1681 3084 1819 3084
Q 2600 3084 3056 2656
Q 3513 2228 3513 1497
Q 3513 744 3044 326
Q 2575 -91 1722 -91
Q 1428 -91 1123 -41
Q 819 9 494 109
L 494 744
Q 775 591 1075 516
Q 1375 441 1709 441
Q 2250 441 2565 725
Q 2881 1009 2881 1497
Q 2881 1984 2565 2268
Q 2250 2553 1709 2553
Q 1456 2553 1204 2497
Q 953 2441 691 2322
L 691 4666
z
" transform="scale(0.015625)"/>
       </defs>
       <use xlink:href="#DejaVuSans-32"/>
       <use xlink:href="#DejaVuSans-39" transform="translate(63.623047 0)"/>
       <use xlink:href="#DejaVuSans-32" transform="translate(127.246094 0)"/>
       <use xlink:href="#DejaVuSans-35" transform="translate(190.869141 0)"/>
      </g>
     </g>
    </g>
    <g id="ytick_3">
     <g id="line2d_3">
      <g>
       <use xlink:href="#m0eef37b094" x="50.783125" y="257.767969" style="fill: #a6adc8; stroke: #a6adc8; stroke-width: 0.8"/>
      </g>
     </g>
     <g id="text_4">
      <!-- 2950 -->
      <g style="fill: #a6adc8" transform="translate(20.878125 261.187266) scale(0.09 -0.09)">
       <use xlink:href="#DejaVuSans-32"/>
       <use xlink:href="#DejaVuSans-39" transform="translate(63.623047 0)"/>
       <use xlink:href="#DejaVuSans-35" transform="translate(127.246094 0)"/>
       <use xlink:href="#DejaVuSans-30" transform="translate(190.869141 0)"/>
      </g>
     </g>
    </g>
    <g id="ytick_4">
     <g id="line2d_4">
      <g>
       <use xlink:href="#m0eef37b094" x="50.783125" y="219.652969" style="fill: #a6adc8; stroke: #a6adc8; stroke-width: 0.8"/>
      </g>
     </g>
     <g id="text_5">
      <!-- 2975 -->
      <g style="fill: #a6adc8" transform="translate(20.878125 223.072266) scale(0.09 -0.09)">
       <defs>
        <path id="DejaVuSans-37" d="M 525 4666
L 3525 4666
L 3525 4397
L 1831 0
L 1172 0
L 2766 4134
L 525 4134
L 525 4666
z
" transform="scale(0.015625)"/>
       </defs>
       <use xlink:href="#DejaVuSans-32"/>
       <use xlink:href="#DejaVuSans-39" transform="translate(63.623047 0)"/>
       <use xlink:href="#DejaVuSans-37" transform="translate(127.246094 0)"/>
       <use xlink:href="#DejaVuSans-35" transform="translate(190.869141 0)"/>
      </g>
     </g>
    </g>
    <g id="ytick_5">
     <g id="line2d_5">
      <g>
       <use xlink:href="#m0eef37b094" x="50.783125" y="181.537969" style="fill: #a6adc8; stroke: #a6adc8; stroke-width: 0.8"/>
      </g>
     </g>
     <g id="text_6">
      <!-- 3000 -->
      <g style="fill: #a6adc8" transform="translate(20.878125 184.957266) scale(0.09 -0.09)">
       <defs>
        <path id="DejaVuSans-33" d="M 2597 2516
Q 3050 2419 3304 2112
Q 3559 1806 3559 1356
Q 3559 666 3084 287
Q 2609 -91 1734 -91
Q 1441 -91 1130 -33
Q 819 25 488 141
L 488 750
Q 750 597 1062 519
Q 1375 441 1716 441
Q 2309 441 2620 675
Q 2931 909 2931 1356
Q 2931 1769 2642 2001
Q 2353 2234 1838 2234
L 1294 2234
L 1294 2753
L 1863 2753
Q 2328 2753 2575 2939
Q 2822 3125 2822 3475
Q 2822 3834 2567 4026
Q 2313 4219 1838 4219
Q 1578 4219 1281 4162
Q 984 4106 628 3988
L 628 4550
Q 988 4650 1302 4700
Q 1616 4750 1894 4750
Q 2613 4750 3031 4423
Q 3450 4097 3450 3541
Q 3450 3153 3228 2886
Q 3006 2619 2597 2516
z
" transform="scale(0.015625)"/>
       </defs>
       <use xlink:href="#DejaVuSans-33"/>
       <use xlink:href="#DejaVuSans-30" transform="translate(63.623047 0)"/>
       <use xlink:href="#DejaVuSans-30" transform="translate(127.246094 0)"/>
       <use xlink:href="#DejaVuSans-30" transform="translate(190.869141 0)"/>
      </g>
     </g>
    </g>
    <g id="ytick_6">
     <g id="line2d_6">
      <g>
       <use xlink:href="#m0eef37b094" x="50.783125" y="143.422969" style="fill: #a6adc8; stroke: #a6adc8; stroke-width: 0.8"/>
      </g>
     </g>
     <g id="text_7">
      <!-- 3025 -->
      <g style="fill: #a6adc8" transform="translate(20.878125 146.842266) scale(0.09 -0.09)">
       <use xlink:href="#DejaVuSans-33"/>
       <use xlink:href="#DejaVuSans-30" transform="translate(63.623047 0)"/>
       <use xlink:href="#DejaVuSans-32" transform="translate(127.246094 0)"/>
       <use xlink:href="#DejaVuSans-35" transform="translate(190.869141 0)"/>
      </g>
     </g>
    </g>
    <g id="ytick_7">
     <g id="line2d_7">
      <g>
       <use xlink:href="#m0eef37b094" x="50.783125" y="105.307969" style="fill: #a6adc8; stroke: #a6adc8; stroke-width: 0.8"/>
      </g>
     </g>
     <g id="text_8">
      <!-- 3050 -->
      <g style="fill: #a6adc8" transform="translate(20.878125 108.727266) scale(0.09 -0.09)">
       <use xlink:href="#DejaVuSans-33"/>
       <use xlink:href="#DejaVuSans-30" transform="translate(63.623047 0)"/>
       <use xlink:href="#DejaVuSans-35" transform="translate(127.246094 0)"/>
       <use xlink:href="#DejaVuSans-30" transform="translate(190.869141 0)"/>
      </g>
     </g>
    </g>
    <g id="ytick_8">
     <g id="line2d_8">
      <g>
       <use xlink:href="#m0eef37b094" x="50.783125" y="67.192969" style="fill: #a6adc8; stroke: #a6adc8; stroke-width: 0.8"/>
      </g>
     </g>
     <g id="text_9">
      <!-- 3075 -->
      <g style="fill: #a6adc8" transform="translate(20.878125 70.612266) scale(0.09 -0.09)">
       <use xlink:href="#DejaVuSans-33"/>
       <use xlink:href="#DejaVuSans-30" transform="translate(63.623047 0)"/>
       <use xlink:href="#DejaVuSans-37" transform="translate(127.246094 0)"/>
       <use xlink:href="#DejaVuSans-35" transform="translate(190.869141 0)"/>
      </g>
     </g>
    </g>
    <g id="ytick_9">
     <g id="line2d_9">
      <g>
       <use xlink:href="#m0eef37b094" x="50.783125" y="29.077969" style="fill: #a6adc8; stroke: #a6adc8; stroke-width: 0.8"/>
      </g>
     </g>
     <g id="text_10">
      <!-- 3100 -->
      <g style="fill: #a6adc8" transform="translate(20.878125 32.497266) scale(0.09 -0.09)">
       <defs>
        <path id="DejaVuSans-31" d="M 794 531
L 1825 531
L 1825 4091
L 703 3866
L 703 4441
L 1819 4666
L 2450 4666
L 2450 531
L 3481 531
L 3481 0
L 794 0
L 794 531
z
" transform="scale(0.015625)"/>
       </defs>
       <use xlink:href="#DejaVuSans-33"/>
       <use xlink:href="#DejaVuSans-31" transform="translate(63.623047 0)"/>
       <use xlink:href="#DejaVuSans-30" transform="translate(127.246094 0)"/>
       <use xlink:href="#DejaVuSans-30" transform="translate(190.869141 0)"/>
      </g>
     </g>
    </g>
    <g id="text_11">
     <!-- Price (USD) -->
     <g style="fill: #cdd6f4" transform="translate(14.798438 209.909844) rotate(-90) scale(0.1 -0.1)">
      <defs>
       <path id="DejaVuSans-50" d="M 1259 4147
L 1259 2394
L 2053 2394
Q 2494 2394 2734 2622
Q 2975 2850 2975 3272
Q 2975 3691 2734 3919
Q 2494 4147 2053 4147
L 1259 4147
z
M 628 4666
L 2053 4666
Q 2838 4666 3239 4311
Q 3641 3956 3641 3272
Q 3641 2581 3239 2228
Q 2838 1875 2053 1875
L 1259 1875
L 1259 0
L 628 0
L 628 4666
z
" transform="scale(0.015625)"/>
       <path id="DejaVuSans-72" d="M 2631 2963
Q 2534 3019 2420 3045
Q 2306 3072 2169 3072
Q 1681 3072 1420 2755
Q 1159 2438 1159 1844
L 1159 0
L 581 0
L 581 3500
L 1159 3500
L 1159 2956
Q 1341 3275 1631 3429
Q 1922 3584 2338 3584
Q 2397 3584 2469 3576
Q 2541 3569 2628 3553
L 2631 2963
z
" transform="scale(0.015625)"/>
       <path id="DejaVuSans-63" d="M 3122 3366
L 3122 2828
Q 2878 2963 2633 3030
Q 2388 3097 2138 3097
Q 1578 3097 1268 2742
Q 959 2388 959 1747
Q 959 1106 1268 751
Q 1578 397 2138 397
Q 2388 397 2633 464
Q 2878 531 3122 666
L 3122 134
Q 2881 22 2623 -34
Q 2366 -91 2075 -91
Q 1284 -91 818 406
Q 353 903 353 1747
Q 353 2603 823 3093
Q 1294 3584 2113 3584
Q 2378 3584 2631 3529
Q 2884 3475 3122 3366
z
" transform="scale(0.015625)"/>
       <path id="DejaVuSans-20" transform="scale(0.015625)"/>
       <path id="DejaVuSans-28" d="M 1984 4856
Q 1566 4138 1362 3434
Q 1159 2731 1159 2009
Q 1159 1288 1364 580
Q 1569 -128 1984 -844
L 1484 -844
Q 1016 -109 783 600
Q 550 1309 550 2009
Q 550 2706 781 3412
Q 1013 4119 1484 4856
L 1984 4856
z
" transform="scale(0.015625)"/>
       <path id="DejaVuSans-55" d="M 556 4666
L 1191 4666
L 1191 1831
Q 1191 1081 1462 751
Q 1734 422 2344 422
Q 2950 422 3222 751
Q 3494 1081 3494 1831
L 3494 4666
L 4128 4666
L 4128 1753
Q 4128 841 3676 375
Q 3225 -91 2344 -91
Q 1459 -91 1007 375
Q 556 841 556 1753
L 556 4666
z
" transform="scale(0.015625)"/>
       <path id="DejaVuSans-53" d="M 3425 4513
L 3425 3897
Q 3066 4069 2747 4153
Q 2428 4238 2131 4238
Q 1616 4238 1336 4038
Q 1056 3838 1056 3469
Q 1056 3159 1242 3001
Q 1428 2844 1947 2747
L 2328 2669
Q 3034 2534 3370 2195
Q 3706 1856 3706 1288
Q 3706 609 3251 259
Q 2797 -91 1919 -91
Q 1588 -91 1214 -16
Q 841 59 441 206
L 441 856
Q 825 641 1194 531
Q 1563 422 1919 422
Q 2459 422 2753 634
Q 3047 847 3047 1241
Q 3047 1584 2836 1778
Q 2625 1972 2144 2069
L 1759 2144
Q 1053 2284 737 2584
Q 422 2884 422 3419
Q 422 4038 858 4394
Q 1294 4750 2059 4750
Q 2388 4750 2728 4690
Q 3069 4631 3425 4513
z
" transform="scale(0.015625)"/>
       <path id="DejaVuSans-44" d="M 1259 4147
L 1259 519
L 2022 519
Q 2988 519 3436 956
Q 3884 1394 3884 2338
Q 3884 3275 3436 3711
Q 2988 4147 2022 4147
L 1259 4147
z
M 628 4666
L 1925 4666
Q 3281 4666 3915 4102
Q 4550 3538 4550 2338
Q 4550 1131 3912 565
Q 3275 0 1925 0
L 628 0
L 628 4666
z
" transform="scale(0.015625)"/>
       <path id="DejaVuSans-29" d="M 513 4856
L 1013 4856
Q 1481 4119 1714 3412
Q 1947 2706 1947 2009
Q 1947 1309 1714 600
Q 1481 -109 1013 -844
L 513 -844
Q 928 -128 1133 580
Q 1338 1288 1338 2009
Q 1338 2731 1133 3434
Q 928 4138 513 4856
z
" transform="scale(0.015625)"/>
      </defs>
      <use xlink:href="#DejaVuSans-50"/>
      <use xlink:href="#DejaVuSans-72" transform="translate(58.552734 0)"/>
      <use xlink:href="#DejaVuSans-69" transform="translate(99.666016 0)"/>
      <use xlink:href="#DejaVuSans-63" transform="translate(127.449219 0)"/>
      <use xlink:href="#DejaVuSans-65" transform="translate(182.429688 0)"/>
      <use xlink:href="#DejaVuSans-20" transform="translate(243.953125 0)"/>
      <use xlink:href="#DejaVuSans-28" transform="translate(275.740234 0)"/>
      <use xlink:href="#DejaVuSans-55" transform="translate(314.753906 0)"/>
      <use xlink:href="#DejaVuSans-53" transform="translate(387.947266 0)"/>
      <use xlink:href="#DejaVuSans-44" transform="translate(451.423828 0)"/>
      <use xlink:href="#DejaVuSans-29" transform="translate(528.425781 0)"/>
     </g>
    </g>
   </g>
   <g id="line2d_10">
    <path d="M 50.783125 105.307969
L 608.783125 105.307969
" clip-path="url(#p962217f013)" style="fill: none; stroke-dasharray: 2.96,1.28; stroke-dashoffset: 0; stroke: #6c7086; stroke-opacity: 0.7; stroke-width: 0.8"/>
   </g>
   <g id="line2d_11">
    <path d="M 50.783125 181.537969
L 608.783125 181.537969
" clip-path="url(#p962217f013)" style="fill: none; stroke-dasharray: 2.96,1.28; stroke-dashoffset: 0; stroke: #6c7086; stroke-opacity: 0.7; stroke-width: 0.8"/>
   </g>
   <g id="line2d_12">
    <path d="M 50.783125 257.767969
L 608.783125 257.767969
" clip-path="url(#p962217f013)" style="fill: none; stroke-dasharray: 2.96,1.28; stroke-dashoffset: 0; stroke: #6c7086; stroke-opacity: 0.7; stroke-width: 0.8"/>
   </g>
   <g id="patch_3">
    <path d="M 50.783125 333.997969
L 50.783125 29.077969
" style="fill: none; stroke: #313244; stroke-width: 0.8; stroke-linejoin: miter; stroke-linecap: square"/>
   </g>
   <g id="patch_4">
    <path d="M 608.783125 333.997969
L 608.783125 29.077969
" style="fill: none; stroke: #313244; stroke-width: 0.8; stroke-linejoin: miter; stroke-linecap: square"/>
   </g>
   <g id="patch_5">
    <path d="M 50.783125 333.997969
L 608.783125 333.997969
" style="fill: none; stroke: #313244; stroke-width: 0.8; stroke-linejoin: miter; stroke-linecap: square"/>
   </g>
   <g id="patch_6">
    <path d="M 50.783125 29.077969
L 608.783125 29.077969
" style="fill: none; stroke: #313244; stroke-width: 0.8; stroke-linejoin: miter; stroke-linecap: square"/>
   </g>
   <g id="text_12">
    <!-- Upper -->
    <g style="fill: #a6adc8" transform="translate(97.931406 102.752391) scale(0.09 -0.09)">
     <defs>
      <path id="DejaVuSans-70" d="M 1159 525
L 1159 -1331
L 581 -1331
L 581 3500
L 1159 3500
L 1159 2969
Q 1341 3281 1617 3432
Q 1894 3584 2278 3584
Q 2916 3584 3314 3078
Q 3713 2572 3713 1747
Q 3713 922 3314 415
Q 2916 -91 2278 -91
Q 1894 -91 1617 61
Q 1341 213 1159 525
z
M 3116 1747
Q 3116 2381 2855 2742
Q 2594 3103 2138 3103
Q 1681 3103 1420 2742
Q 1159 2381 1159 1747
Q 1159 1113 1420 752
Q 1681 391 2138 391
Q 2594 391 2855 752
Q 3116 1113 3116 1747
z
" transform="scale(0.015625)"/>
     </defs>
     <use xlink:href="#DejaVuSans-55"/>
     <use xlink:href="#DejaVuSans-70" transform="translate(73.193359 0)"/>
     <use xlink:href="#DejaVuSans-70" transform="translate(136.669922 0)"/>
     <use xlink:href="#DejaVuSans-65" transform="translate(200.146484 0)"/>
     <use xlink:href="#DejaVuSans-72" transform="translate(261.669922 0)"/>
    </g>
    <!-- $3,050 -->
    <g style="fill: #a6adc8" transform="translate(93.691563 112.830422) scale(0.09 -0.09)">
     <defs>
      <path id="DejaVuSans-24" d="M 2163 -941
L 1850 -941
L 1847 0
Q 1519 6 1191 76
Q 863 147 531 288
L 531 850
Q 850 650 1176 548
Q 1503 447 1850 444
L 1850 1869
Q 1159 1981 845 2250
Q 531 2519 531 2988
Q 531 3497 872 3790
Q 1213 4084 1850 4128
L 1850 4863
L 2163 4863
L 2163 4138
Q 2453 4125 2725 4076
Q 2997 4028 3256 3944
L 3256 3397
Q 2997 3528 2723 3600
Q 2450 3672 2163 3684
L 2163 2350
Q 2872 2241 3206 1959
Q 3541 1678 3541 1191
Q 3541 663 3186 358
Q 2831 53 2163 6
L 2163 -941
z
M 1850 2406
L 1850 3688
Q 1488 3647 1297 3481
Q 1106 3316 1106 3041
Q 1106 2772 1282 2622
Q 1459 2472 1850 2406
z
M 2163 1806
L 2163 453
Q 2559 506 2761 678
Q 2963 850 2963 1131
Q 2963 1406 2770 1568
Q 2578 1731 2163 1806
z
" transform="scale(0.015625)"/>
      <path id="DejaVuSans-2c" d="M 750 794
L 1409 794
L 1409 256
L 897 -744
L 494 -744
L 750 256
L 750 794
z
" transform="scale(0.015625)"/>
     </defs>
     <use xlink:href="#DejaVuSans-24"/>
     <use xlink:href="#DejaVuSans-33" transform="translate(63.623047 0)"/>
     <use xlink:href="#DejaVuSans-2c" transform="translate(127.246094 0)"/>
     <use xlink:href="#DejaVuSans-30" transform="translate(159.033203 0)"/>
     <use xlink:href="#DejaVuSans-35" transform="translate(222.65625 0)"/>
     <use xlink:href="#DejaVuSans-30" transform="translate(286.279297 0)"/>
    </g>
   </g>
   <g id="text_13">
    <!-- Mid -->
    <g style="fill: #a6adc8" transform="translate(109.203906 178.982391) scale(0.09 -0.09)">
     <defs>
      <path id="DejaVuSans-4d" d="M 628 4666
L 1569 4666
L 2759 1491
L 3956 4666
L 4897 4666
L 4897 0
L 4281 0
L 4281 4097
L 3078 897
L 2444 897
L 1241 4097
L 1241 0
L 628 0
L 628 4666
z
" transform="scale(0.015625)"/>
      <path id="DejaVuSans-64" d="M 2906 2969
L 2906 4863
L 3481 4863
L 3481 0
L 2906 0
L 2906 525
Q 2725 213 2448 61
Q 2172 -91 1784 -91
Q 1150 -91 751 415
Q 353 922 353 1747
Q 353 2572 751 3078
Q 1150 3584 1784 3584
Q 2172 3584 2448 3432
Q 2725 3281 2906 2969
z
M 947 1747
Q 947 1113 1208 752
Q 1469 391 1925 391
Q 2381 391 2643 752
Q 2906 1113 2906 1747
Q 2906 2381 2643 2742
Q 2381 3103 1925 3103
Q 1469 3103 1208 2742
Q 947 2381 947 1747
z
" transform="scale(0.015625)"/>
     </defs>
     <use xlink:href="#DejaVuSans-4d"/>
     <use xlink:href="#DejaVuSans-69" transform="translate(86.279297 0)"/>
     <use xlink:href="#DejaVuSans-64" transform="translate(114.0625 0)"/>
    </g>
    <!-- $3,000 -->
    <g style="fill: #a6adc8" transform="translate(93.691563 189.060422) scale(0.09 -0.09)">
     <use xlink:href="#DejaVuSans-24"/>
     <use xlink:href="#DejaVuSans-33" transform="translate(63.623047 0)"/>
     <use xlink:href="#DejaVuSans-2c" transform="translate(127.246094 0)"/>
     <use xlink:href="#DejaVuSans-30" transform="translate(159.033203 0)"/>
     <use xlink:href="#DejaVuSans-30" transform="translate(222.65625 0)"/>
     <use xlink:href="#DejaVuSans-30" transform="translate(286.279297 0)"/>
    </g>
   </g>
   <g id="text_14">
    <!-- Lower -->
    <g style="fill: #a6adc8" transform="translate(98.221094 255.212391) scale(0.09 -0.09)">
     <defs>
      <path id="DejaVuSans-4c" d="M 628 4666
L 1259 4666
L 1259 531
L 3531 531
L 3531 0
L 628 0
L 628 4666
z
" transform="scale(0.015625)"/>
      <path id="DejaVuSans-6f" d="M 1959 3097
Q 1497 3097 1228 2736
Q 959 2375 959 1747
Q 959 1119 1226 758
Q 1494 397 1959 397
Q 2419 397 2687 759
Q 2956 1122 2956 1747
Q 2956 2369 2687 2733
Q 2419 3097 1959 3097
z
M 1959 3584
Q 2709 3584 3137 3096
Q 3566 2609 3566 1747
Q 3566 888 3137 398
Q 2709 -91 1959 -91
Q 1206 -91 779 398
Q 353 888 353 1747
Q 353 2609 779 3096
Q 1206 3584 1959 3584
z
" transform="scale(0.015625)"/>
      <path id="DejaVuSans-77" d="M 269 3500
L 844 3500
L 1563 769
L 2278 3500
L 2956 3500
L 3675 769
L 4391 3500
L 4966 3500
L 4050 0
L 3372 0
L 2619 2869
L 1863 0
L 1184 0
L 269 3500
z
" transform="scale(0.015625)"/>
     </defs>
     <use xlink:href="#DejaVuSans-4c"/>
     <use xlink:href="#DejaVuSans-6f" transform="translate(53.962891 0)"/>
     <use xlink:href="#DejaVuSans-77" transform="translate(115.144531 0)"/>
     <use xlink:href="#DejaVuSans-65" transform="translate(196.931641 0)"/>
     <use xlink:href="#DejaVuSans-72" transform="translate(258.455078 0)"/>
    </g>
    <!-- $2,950 -->
    <g style="fill: #a6adc8" transform="translate(93.691563 265.290422) scale(0.09 -0.09)">
     <use xlink:href="#DejaVuSans-24"/>
     <use xlink:href="#DejaVuSans-32" transform="translate(63.623047 0)"/>
     <use xlink:href="#DejaVuSans-2c" transform="translate(127.246094 0)"/>
     <use xlink:href="#DejaVuSans-39" transform="translate(159.033203 0)"/>
     <use xlink:href="#DejaVuSans-35" transform="translate(222.65625 0)"/>
     <use xlink:href="#DejaVuSans-30" transform="translate(286.279297 0)"/>
    </g>
   </g>
   <g id="line2d_13">
    <path d="M 143.783125 181.537969
L 161.497411 198.50074
L 171.61986 207.865147
L 179.211696 214.612926
L 186.803533 221.055034
L 194.39537 227.131934
L 199.456594 230.952419
L 204.517819 234.56985
L 209.579043 237.96936
L 214.640268 241.136983
L 219.701492 244.0597
L 224.762717 246.725502
L 229.823941 249.123434
L 234.885166 251.243643
L 239.94639 253.077417
L 245.007615 254.617219
L 250.068839 255.856723
L 255.130064 256.790836
L 260.191288 257.415719
L 265.252513 257.728803
L 267.783125 257.767969
L 267.783125 257.767969
L 288.972998 230.63041
L 300.74515 215.873825
L 310.162872 204.359577
L 319.580593 193.182994
L 328.998315 182.414737
L 336.061606 174.647574
L 343.124897 167.17608
L 350.188188 160.026833
L 357.251479 153.225263
L 364.314771 146.795565
L 371.378062 140.76061
L 378.441353 135.141865
L 383.150214 131.637196
L 387.859074 128.331965
L 392.567935 125.2314
L 397.276796 122.340402
L 401.985657 119.663542
L 406.694517 117.205055
L 411.403378 114.968826
L 416.112239 112.958391
L 420.8211 111.176931
L 425.52996 109.627261
L 430.238821 108.311832
L 434.947682 107.232724
L 439.656543 106.391643
L 444.365403 105.789919
L 449.074264 105.428504
L 453.783125 105.307969
L 453.783125 105.307969
L 474.028023 113.042404
L 486.681084 117.650622
L 496.803533 121.114795
L 506.925982 124.31942
L 514.517819 126.520721
L 522.109656 128.525979
L 529.701492 130.316661
L 537.293329 131.876219
L 544.885166 133.190238
L 552.477003 134.246577
L 560.068839 135.035471
L 567.660676 135.54963
L 575.252513 135.784302
L 577.783125 135.799969
L 577.783125 135.799969
" clip-path="url(#p962217f013)" style="fill: none; stroke: #89b4fa; stroke-width: 2.2; stroke-linecap: square"/>
   </g>
   <g id="patch_7">
    <path d="M 325.16097 292.863273
Q 297.324801 275.837209 270.919283 259.686208
" style="fill: none; stroke: #a6e3a1; stroke-width: 1.5; stroke-linecap: round"/>
    <path d="M 273.288016 263.479505
L 270.919283 259.686208
L 275.375161 260.0672
" style="fill: none; stroke: #a6e3a1; stroke-width: 1.5; stroke-linecap: round"/>
   </g>
   <g id="text_15">
    <!-- BUY @ $2,950 -->
    <g style="fill: #a6e3a1" transform="translate(298.783125 303.505969) scale(0.1 -0.1)">
     <defs>
      <path id="DejaVuSans-Bold-42" d="M 2456 2859
Q 2741 2859 2887 2984
Q 3034 3109 3034 3353
Q 3034 3594 2887 3720
Q 2741 3847 2456 3847
L 1791 3847
L 1791 2859
L 2456 2859
z
M 2497 819
Q 2859 819 3042 972
Q 3225 1125 3225 1434
Q 3225 1738 3044 1889
Q 2863 2041 2497 2041
L 1791 2041
L 1791 819
L 2497 819
z
M 3616 2497
Q 4003 2384 4215 2081
Q 4428 1778 4428 1338
Q 4428 663 3972 331
Q 3516 0 2584 0
L 588 0
L 588 4666
L 2394 4666
Q 3366 4666 3802 4372
Q 4238 4078 4238 3431
Q 4238 3091 4078 2852
Q 3919 2613 3616 2497
z
" transform="scale(0.015625)"/>
      <path id="DejaVuSans-Bold-55" d="M 588 4666
L 1791 4666
L 1791 1869
Q 1791 1291 1980 1042
Q 2169 794 2597 794
Q 3028 794 3217 1042
Q 3406 1291 3406 1869
L 3406 4666
L 4609 4666
L 4609 1869
Q 4609 878 4112 393
Q 3616 -91 2597 -91
Q 1581 -91 1084 393
Q 588 878 588 1869
L 588 4666
z
" transform="scale(0.015625)"/>
      <path id="DejaVuSans-Bold-59" d="M -63 4666
L 1253 4666
L 2316 3003
L 3378 4666
L 4697 4666
L 2919 1966
L 2919 0
L 1716 0
L 1716 1966
L -63 4666
z
" transform="scale(0.015625)"/>
      <path id="DejaVuSans-Bold-20" transform="scale(0.015625)"/>
      <path id="DejaVuSans-Bold-40" d="M 2597 1684
Q 2597 1300 2761 1078
Q 2925 856 3206 856
Q 3484 856 3650 1079
Q 3816 1303 3816 1684
Q 3816 2063 3648 2283
Q 3481 2503 3200 2503
Q 2925 2503 2761 2283
Q 2597 2063 2597 1684
z
M 3878 744
Q 3784 522 3576 398
Q 3369 275 3091 275
Q 2553 275 2217 664
Q 1881 1053 1881 1678
Q 1881 2303 2218 2693
Q 2556 3084 3091 3084
Q 3369 3084 3576 2959
Q 3784 2834 3878 2613
L 3878 3022
L 4531 3022
L 4531 856
Q 4919 916 5141 1230
Q 5363 1544 5363 2034
Q 5363 2347 5272 2620
Q 5181 2894 4997 3122
Q 4700 3503 4254 3709
Q 3809 3916 3291 3916
Q 2928 3916 2597 3820
Q 2266 3725 1984 3541
Q 1522 3234 1264 2748
Q 1006 2263 1006 1697
Q 1006 1231 1173 823
Q 1341 416 1656 103
Q 1969 -203 2373 -364
Q 2778 -525 3238 -525
Q 3631 -525 4025 -378
Q 4419 -231 4697 19
L 5031 -488
Q 4641 -791 4180 -952
Q 3719 -1113 3244 -1113
Q 2666 -1113 2153 -908
Q 1641 -703 1241 -313
Q 841 78 631 592
Q 422 1106 422 1697
Q 422 2266 634 2781
Q 847 3297 1241 3688
Q 1634 4075 2157 4287
Q 2681 4500 3244 4500
Q 3944 4500 4516 4233
Q 5088 3966 5472 3463
Q 5706 3156 5826 2798
Q 5947 2441 5947 2047
Q 5947 1200 5437 731
Q 4928 263 4000 263
L 3878 263
L 3878 744
z
" transform="scale(0.015625)"/>
      <path id="DejaVuSans-Bold-24" d="M 2484 -941
L 1978 -941
L 1975 0
Q 1584 16 1218 87
Q 853 159 506 288
L 506 1106
Q 866 922 1233 823
Q 1600 725 1978 713
L 1978 1684
L 1875 1703
Q 1128 1834 814 2115
Q 500 2397 500 2925
Q 500 3484 883 3798
Q 1266 4113 1975 4141
L 1978 4863
L 2484 4863
L 2484 4153
Q 2797 4128 3109 4075
Q 3422 4022 3738 3938
L 3738 3144
Q 3425 3275 3112 3348
Q 2800 3422 2484 3438
L 2484 2541
L 2584 2522
Q 3378 2397 3698 2105
Q 4019 1813 4019 1241
Q 4019 666 3637 358
Q 3256 50 2484 6
L 2484 -941
z
M 1978 2613
L 1978 3428
Q 1756 3416 1623 3308
Q 1491 3200 1491 3034
Q 1491 2850 1612 2745
Q 1734 2641 1978 2613
z
M 2484 1594
L 2484 725
Q 2756 728 2892 831
Q 3028 934 3028 1141
Q 3028 1353 2903 1458
Q 2778 1563 2484 1594
z
" transform="scale(0.015625)"/>
      <path id="DejaVuSans-Bold-32" d="M 1844 884
L 3897 884
L 3897 0
L 506 0
L 506 884
L 2209 2388
Q 2438 2594 2547 2791
Q 2656 2988 2656 3200
Q 2656 3528 2436 3728
Q 2216 3928 1850 3928
Q 1569 3928 1234 3808
Q 900 3688 519 3450
L 519 4475
Q 925 4609 1322 4679
Q 1719 4750 2100 4750
Q 2938 4750 3402 4381
Q 3866 4013 3866 3353
Q 3866 2972 3669 2642
Q 3472 2313 2841 1759
L 1844 884
z
" transform="scale(0.015625)"/>
      <path id="DejaVuSans-Bold-2c" d="M 653 1209
L 1778 1209
L 1778 256
L 1006 -909
L 341 -909
L 653 256
L 653 1209
z
" transform="scale(0.015625)"/>
      <path id="DejaVuSans-Bold-39" d="M 641 103
L 641 966
Q 928 831 1190 764
Q 1453 697 1709 697
Q 2247 697 2547 995
Q 2847 1294 2900 1881
Q 2688 1725 2447 1647
Q 2206 1569 1925 1569
Q 1209 1569 770 1986
Q 331 2403 331 3084
Q 331 3838 820 4291
Q 1309 4744 2131 4744
Q 3044 4744 3544 4128
Q 4044 3513 4044 2388
Q 4044 1231 3459 570
Q 2875 -91 1856 -91
Q 1528 -91 1228 -42
Q 928 6 641 103
z
M 2125 2350
Q 2441 2350 2600 2554
Q 2759 2759 2759 3169
Q 2759 3575 2600 3781
Q 2441 3988 2125 3988
Q 1809 3988 1650 3781
Q 1491 3575 1491 3169
Q 1491 2759 1650 2554
Q 1809 2350 2125 2350
z
" transform="scale(0.015625)"/>
      <path id="DejaVuSans-Bold-35" d="M 678 4666
L 3669 4666
L 3669 3781
L 1638 3781
L 1638 3059
Q 1775 3097 1914 3117
Q 2053 3138 2203 3138
Q 3056 3138 3531 2711
Q 4006 2284 4006 1522
Q 4006 766 3489 337
Q 2972 -91 2053 -91
Q 1656 -91 1267 -14
Q 878 63 494 219
L 494 1166
Q 875 947 1217 837
Q 1559 728 1863 728
Q 2300 728 2551 942
Q 2803 1156 2803 1522
Q 2803 1891 2551 2103
Q 2300 2316 1863 2316
Q 1603 2316 1309 2248
Q 1016 2181 678 2041
L 678 4666
z
" transform="scale(0.015625)"/>
      <path id="DejaVuSans-Bold-30" d="M 2944 2338
Q 2944 3213 2780 3570
Q 2616 3928 2228 3928
Q 1841 3928 1675 3570
Q 1509 3213 1509 2338
Q 1509 1453 1675 1090
Q 1841 728 2228 728
Q 2613 728 2778 1090
Q 2944 1453 2944 2338
z
M 4147 2328
Q 4147 1169 3647 539
Q 3147 -91 2228 -91
Q 1306 -91 806 539
Q 306 1169 306 2328
Q 306 3491 806 4120
Q 1306 4750 2228 4750
Q 3147 4750 3647 4120
Q 4147 3491 4147 2328
z
" transform="scale(0.015625)"/>
     </defs>
     <use xlink:href="#DejaVuSans-Bold-42"/>
     <use xlink:href="#DejaVuSans-Bold-55" transform="translate(76.220703 0)"/>
     <use xlink:href="#DejaVuSans-Bold-59" transform="translate(157.421875 0)"/>
     <use xlink:href="#DejaVuSans-Bold-20" transform="translate(229.833984 0)"/>
     <use xlink:href="#DejaVuSans-Bold-40" transform="translate(264.648438 0)"/>
     <use xlink:href="#DejaVuSans-Bold-20" transform="translate(364.648438 0)"/>
     <use xlink:href="#DejaVuSans-Bold-24" transform="translate(399.462891 0)"/>
     <use xlink:href="#DejaVuSans-Bold-32" transform="translate(469.042969 0)"/>
     <use xlink:href="#DejaVuSans-Bold-2c" transform="translate(538.623047 0)"/>
     <use xlink:href="#DejaVuSans-Bold-39" transform="translate(576.611328 0)"/>
     <use xlink:href="#DejaVuSans-Bold-35" transform="translate(646.191406 0)"/>
     <use xlink:href="#DejaVuSans-Bold-30" transform="translate(715.771484 0)"/>
    </g>
   </g>
   <g id="patch_8">
    <path d="M 514.108917 64.765985
Q 484.776311 84.47898 456.835627 103.256533
" style="fill: none; stroke: #f38ba8; stroke-width: 1.5; stroke-linecap: round"/>
    <path d="M 461.271135 102.685338
L 456.835627 103.256533
L 459.039975 99.365409
" style="fill: none; stroke: #f38ba8; stroke-width: 1.5; stroke-linecap: round"/>
   </g>
   <g id="text_16">
    <!-- SELL @ $3,050 -->
    <g style="fill: #f38ba8" transform="translate(484.783125 59.569969) scale(0.1 -0.1)">
     <defs>
      <path id="DejaVuSans-Bold-53" d="M 3834 4519
L 3834 3531
Q 3450 3703 3084 3790
Q 2719 3878 2394 3878
Q 1963 3878 1756 3759
Q 1550 3641 1550 3391
Q 1550 3203 1689 3098
Q 1828 2994 2194 2919
L 2706 2816
Q 3484 2659 3812 2340
Q 4141 2022 4141 1434
Q 4141 663 3683 286
Q 3225 -91 2284 -91
Q 1841 -91 1394 -6
Q 947 78 500 244
L 500 1259
Q 947 1022 1364 901
Q 1781 781 2169 781
Q 2563 781 2772 912
Q 2981 1044 2981 1288
Q 2981 1506 2839 1625
Q 2697 1744 2272 1838
L 1806 1941
Q 1106 2091 782 2419
Q 459 2747 459 3303
Q 459 4000 909 4375
Q 1359 4750 2203 4750
Q 2588 4750 2994 4692
Q 3400 4634 3834 4519
z
" transform="scale(0.015625)"/>
      <path id="DejaVuSans-Bold-45" d="M 588 4666
L 3834 4666
L 3834 3756
L 1791 3756
L 1791 2888
L 3713 2888
L 3713 1978
L 1791 1978
L 1791 909
L 3903 909
L 3903 0
L 588 0
L 588 4666
z
" transform="scale(0.015625)"/>
      <path id="DejaVuSans-Bold-4c" d="M 588 4666
L 1791 4666
L 1791 909
L 3903 909
L 3903 0
L 588 0
L 588 4666
z
" transform="scale(0.015625)"/>
      <path id="DejaVuSans-Bold-33" d="M 2981 2516
Q 3453 2394 3698 2092
Q 3944 1791 3944 1325
Q 3944 631 3412 270
Q 2881 -91 1863 -91
Q 1503 -91 1142 -33
Q 781 25 428 141
L 428 1069
Q 766 900 1098 814
Q 1431 728 1753 728
Q 2231 728 2486 893
Q 2741 1059 2741 1369
Q 2741 1688 2480 1852
Q 2219 2016 1709 2016
L 1228 2016
L 1228 2791
L 1734 2791
Q 2188 2791 2409 2933
Q 2631 3075 2631 3366
Q 2631 3634 2415 3781
Q 2200 3928 1806 3928
Q 1516 3928 1219 3862
Q 922 3797 628 3669
L 628 4550
Q 984 4650 1334 4700
Q 1684 4750 2022 4750
Q 2931 4750 3382 4451
Q 3834 4153 3834 3553
Q 3834 3144 3618 2883
Q 3403 2622 2981 2516
z
" transform="scale(0.015625)"/>
     </defs>
     <use xlink:href="#DejaVuSans-Bold-53"/>
     <use xlink:href="#DejaVuSans-Bold-45" transform="translate(72.021484 0)"/>
     <use xlink:href="#DejaVuSans-Bold-4c" transform="translate(140.332031 0)"/>
     <use xlink:href="#DejaVuSans-Bold-4c" transform="translate(204.052734 0)"/>
     <use xlink:href="#DejaVuSans-Bold-20" transform="translate(267.773438 0)"/>
     <use xlink:href="#DejaVuSans-Bold-40" transform="translate(302.587891 0)"/>
     <use xlink:href="#DejaVuSans-Bold-20" transform="translate(402.587891 0)"/>
     <use xlink:href="#DejaVuSans-Bold-24" transform="translate(437.402344 0)"/>
     <use xlink:href="#DejaVuSans-Bold-33" transform="translate(506.982422 0)"/>
     <use xlink:href="#DejaVuSans-Bold-2c" transform="translate(576.5625 0)"/>
     <use xlink:href="#DejaVuSans-Bold-30" transform="translate(614.550781 0)"/>
     <use xlink:href="#DejaVuSans-Bold-35" transform="translate(684.130859 0)"/>
     <use xlink:href="#DejaVuSans-Bold-30" transform="translate(753.710938 0)"/>
    </g>
   </g>
   <g id="patch_9">
    <path d="M 528.183125 109.540049
Q 528.183125 181.537259 528.183125 253.534469
" style="fill: none; stroke: #f9e2af; stroke-width: 2; stroke-linecap: round"/>
    <path d="M 526.183125 113.540049
L 528.183125 109.540049
L 530.183125 113.540049
" style="fill: none; stroke: #f9e2af; stroke-width: 2; stroke-linecap: round"/>
    <path d="M 530.183125 249.534469
L 528.183125 253.534469
L 526.183125 249.534469
" style="fill: none; stroke: #f9e2af; stroke-width: 2; stroke-linecap: round"/>
   </g>
   <g id="text_17">
    <!-- Profit -->
    <g style="fill: #f9e2af" transform="translate(537.483125 178.414484) scale(0.11 -0.11)">
     <defs>
      <path id="DejaVuSans-Bold-50" d="M 588 4666
L 2584 4666
Q 3475 4666 3951 4270
Q 4428 3875 4428 3144
Q 4428 2409 3951 2014
Q 3475 1619 2584 1619
L 1791 1619
L 1791 0
L 588 0
L 588 4666
z
M 1791 3794
L 1791 2491
L 2456 2491
Q 2806 2491 2997 2661
Q 3188 2831 3188 3144
Q 3188 3456 2997 3625
Q 2806 3794 2456 3794
L 1791 3794
z
" transform="scale(0.015625)"/>
      <path id="DejaVuSans-Bold-72" d="M 3138 2547
Q 2991 2616 2845 2648
Q 2700 2681 2553 2681
Q 2122 2681 1889 2404
Q 1656 2128 1656 1613
L 1656 0
L 538 0
L 538 3500
L 1656 3500
L 1656 2925
Q 1872 3269 2151 3426
Q 2431 3584 2822 3584
Q 2878 3584 2943 3579
Q 3009 3575 3134 3559
L 3138 2547
z
" transform="scale(0.015625)"/>
      <path id="DejaVuSans-Bold-6f" d="M 2203 2784
Q 1831 2784 1636 2517
Q 1441 2250 1441 1747
Q 1441 1244 1636 976
Q 1831 709 2203 709
Q 2569 709 2762 976
Q 2956 1244 2956 1747
Q 2956 2250 2762 2517
Q 2569 2784 2203 2784
z
M 2203 3584
Q 3106 3584 3614 3096
Q 4122 2609 4122 1747
Q 4122 884 3614 396
Q 3106 -91 2203 -91
Q 1297 -91 786 396
Q 275 884 275 1747
Q 275 2609 786 3096
Q 1297 3584 2203 3584
z
" transform="scale(0.015625)"/>
      <path id="DejaVuSans-Bold-66" d="M 2841 4863
L 2841 4128
L 2222 4128
Q 1984 4128 1890 4042
Q 1797 3956 1797 3744
L 1797 3500
L 2753 3500
L 2753 2700
L 1797 2700
L 1797 0
L 678 0
L 678 2700
L 122 2700
L 122 3500
L 678 3500
L 678 3744
Q 678 4316 997 4589
Q 1316 4863 1984 4863
L 2841 4863
z
" transform="scale(0.015625)"/>
      <path id="DejaVuSans-Bold-69" d="M 538 3500
L 1656 3500
L 1656 0
L 538 0
L 538 3500
z
M 538 4863
L 1656 4863
L 1656 3950
L 538 3950
L 538 4863
z
" transform="scale(0.015625)"/>
      <path id="DejaVuSans-Bold-74" d="M 1759 4494
L 1759 3500
L 2913 3500
L 2913 2700
L 1759 2700
L 1759 1216
Q 1759 972 1856 886
Q 1953 800 2241 800
L 2816 800
L 2816 0
L 1856 0
Q 1194 0 917 276
Q 641 553 641 1216
L 641 2700
L 84 2700
L 84 3500
L 641 3500
L 641 4494
L 1759 4494
z
" transform="scale(0.015625)"/>
     </defs>
     <use xlink:href="#DejaVuSans-Bold-50"/>
     <use xlink:href="#DejaVuSans-Bold-72" transform="translate(73.291016 0)"/>
     <use xlink:href="#DejaVuSans-Bold-6f" transform="translate(122.607422 0)"/>
     <use xlink:href="#DejaVuSans-Bold-66" transform="translate(191.308594 0)"/>
     <use xlink:href="#DejaVuSans-Bold-69" transform="translate(234.814453 0)"/>
     <use xlink:href="#DejaVuSans-Bold-74" transform="translate(269.091797 0)"/>
    </g>
    <!-- $100 -->
    <g style="fill: #f9e2af" transform="translate(537.483125 190.732078) scale(0.11 -0.11)">
     <defs>
      <path id="DejaVuSans-Bold-31" d="M 750 831
L 1813 831
L 1813 3847
L 722 3622
L 722 4441
L 1806 4666
L 2950 4666
L 2950 831
L 4013 831
L 4013 0
L 750 0
L 750 831
z
" transform="scale(0.015625)"/>
     </defs>
     <use xlink:href="#DejaVuSans-Bold-24"/>
     <use xlink:href="#DejaVuSans-Bold-31" transform="translate(69.580078 0)"/>
     <use xlink:href="#DejaVuSans-Bold-30" transform="translate(139.160156 0)"/>
     <use xlink:href="#DejaVuSans-Bold-30" transform="translate(208.740234 0)"/>
    </g>
   </g>
   <g id="patch_10">
    <path d="M 176.033825 190.722299
Q 210.975184 233.8068 264.146611 241.975496
" style="fill: none; stroke: #a6adc8; stroke-width: 1.5; stroke-linecap: round"/>
    <path d="M 258.671732 238.099197
L 264.146611 241.975496
L 257.760644 244.02962
z
" style="fill: #a6adc8; stroke: #a6adc8; stroke-width: 1.5; stroke-linecap: round"/>
   </g>
   <g id="text_18">
    <!-- Price drops -->
    <g style="fill: #a6adc8" transform="translate(193.383125 204.406969) scale(0.085 -0.085)">
     <defs>
      <path id="DejaVuSans-Oblique-50" d="M 1081 4666
L 2541 4666
Q 3178 4666 3512 4369
Q 3847 4072 3847 3500
Q 3847 2731 3353 2303
Q 2859 1875 1966 1875
L 1172 1875
L 806 0
L 172 0
L 1081 4666
z
M 1613 4147
L 1275 2394
L 2069 2394
Q 2606 2394 2893 2669
Q 3181 2944 3181 3456
Q 3181 3784 2986 3965
Q 2791 4147 2438 4147
L 1613 4147
z
" transform="scale(0.015625)"/>
      <path id="DejaVuSans-Oblique-72" d="M 2853 2969
Q 2766 3016 2653 3041
Q 2541 3066 2413 3066
Q 1953 3066 1609 2717
Q 1266 2369 1153 1784
L 800 0
L 225 0
L 909 3500
L 1484 3500
L 1375 2956
Q 1603 3259 1920 3421
Q 2238 3584 2597 3584
Q 2691 3584 2781 3573
Q 2872 3563 2963 3538
L 2853 2969
z
" transform="scale(0.015625)"/>
      <path id="DejaVuSans-Oblique-69" d="M 1172 4863
L 1747 4863
L 1606 4134
L 1031 4134
L 1172 4863
z
M 909 3500
L 1484 3500
L 800 0
L 225 0
L 909 3500
z
" transform="scale(0.015625)"/>
      <path id="DejaVuSans-Oblique-63" d="M 3431 3366
L 3316 2797
Q 3109 2947 2876 3022
Q 2644 3097 2394 3097
Q 2119 3097 1870 3000
Q 1622 2903 1453 2725
Q 1184 2453 1037 2087
Q 891 1722 891 1331
Q 891 859 1127 628
Q 1363 397 1844 397
Q 2081 397 2348 469
Q 2616 541 2906 684
L 2797 116
Q 2547 13 2283 -39
Q 2019 -91 1741 -91
Q 1044 -91 669 257
Q 294 606 294 1253
Q 294 1797 489 2255
Q 684 2713 1069 3078
Q 1331 3328 1684 3456
Q 2038 3584 2456 3584
Q 2700 3584 2940 3529
Q 3181 3475 3431 3366
z
" transform="scale(0.015625)"/>
      <path id="DejaVuSans-Oblique-65" d="M 3078 2063
Q 3088 2113 3092 2166
Q 3097 2219 3097 2272
Q 3097 2653 2873 2875
Q 2650 3097 2266 3097
Q 1838 3097 1509 2826
Q 1181 2556 1013 2059
L 3078 2063
z
M 3578 1613
L 903 1613
Q 884 1494 878 1425
Q 872 1356 872 1306
Q 872 872 1139 634
Q 1406 397 1894 397
Q 2269 397 2603 481
Q 2938 566 3225 728
L 3116 159
Q 2806 34 2476 -28
Q 2147 -91 1806 -91
Q 1078 -91 686 257
Q 294 606 294 1247
Q 294 1794 489 2264
Q 684 2734 1063 3103
Q 1306 3334 1642 3459
Q 1978 3584 2356 3584
Q 2950 3584 3301 3228
Q 3653 2872 3653 2272
Q 3653 2128 3634 1964
Q 3616 1800 3578 1613
z
" transform="scale(0.015625)"/>
      <path id="DejaVuSans-Oblique-20" transform="scale(0.015625)"/>
      <path id="DejaVuSans-Oblique-64" d="M 2675 525
Q 2444 222 2128 65
Q 1813 -91 1428 -91
Q 903 -91 598 267
Q 294 625 294 1247
Q 294 1766 478 2236
Q 663 2706 1013 3078
Q 1244 3325 1534 3454
Q 1825 3584 2144 3584
Q 2481 3584 2739 3421
Q 2997 3259 3138 2956
L 3513 4863
L 4091 4863
L 3144 0
L 2566 0
L 2675 525
z
M 891 1350
Q 891 897 1095 644
Q 1300 391 1663 391
Q 1931 391 2161 520
Q 2391 650 2566 903
Q 2750 1166 2856 1509
Q 2963 1853 2963 2188
Q 2963 2622 2758 2865
Q 2553 3109 2194 3109
Q 1922 3109 1687 2981
Q 1453 2853 1288 2613
Q 1106 2353 998 2009
Q 891 1666 891 1350
z
" transform="scale(0.015625)"/>
      <path id="DejaVuSans-Oblique-6f" d="M 1625 -91
Q 1009 -91 651 289
Q 294 669 294 1325
Q 294 1706 417 2101
Q 541 2497 738 2766
Q 1047 3184 1428 3384
Q 1809 3584 2291 3584
Q 2888 3584 3255 3212
Q 3622 2841 3622 2241
Q 3622 1825 3500 1412
Q 3378 1000 3181 728
Q 2875 309 2494 109
Q 2113 -91 1625 -91
z
M 891 1344
Q 891 869 1089 633
Q 1288 397 1691 397
Q 2269 397 2648 901
Q 3028 1406 3028 2181
Q 3028 2634 2825 2865
Q 2622 3097 2228 3097
Q 1903 3097 1650 2945
Q 1397 2794 1197 2484
Q 1050 2253 970 1956
Q 891 1659 891 1344
z
" transform="scale(0.015625)"/>
      <path id="DejaVuSans-Oblique-70" d="M 3175 2156
Q 3175 2616 2975 2859
Q 2775 3103 2400 3103
Q 2144 3103 1911 2972
Q 1678 2841 1497 2591
Q 1319 2344 1212 1994
Q 1106 1644 1106 1300
Q 1106 863 1306 627
Q 1506 391 1875 391
Q 2147 391 2380 519
Q 2613 647 2778 891
Q 2956 1147 3065 1494
Q 3175 1841 3175 2156
z
M 1394 2969
Q 1625 3272 1939 3428
Q 2253 3584 2638 3584
Q 3175 3584 3472 3232
Q 3769 2881 3769 2247
Q 3769 1728 3584 1258
Q 3400 788 3053 416
Q 2822 169 2531 39
Q 2241 -91 1919 -91
Q 1547 -91 1294 64
Q 1041 219 916 525
L 556 -1331
L -19 -1331
L 922 3500
L 1497 3500
L 1394 2969
z
" transform="scale(0.015625)"/>
      <path id="DejaVuSans-Oblique-73" d="M 3200 3397
L 3091 2853
Q 2863 2978 2609 3040
Q 2356 3103 2088 3103
Q 1634 3103 1373 2948
Q 1113 2794 1113 2528
Q 1113 2219 1719 2053
Q 1766 2041 1788 2034
L 1972 1978
Q 2547 1819 2739 1644
Q 2931 1469 2931 1166
Q 2931 609 2489 259
Q 2047 -91 1331 -91
Q 1053 -91 747 -37
Q 441 16 72 128
L 184 722
Q 500 559 806 475
Q 1113 391 1394 391
Q 1816 391 2080 572
Q 2344 753 2344 1031
Q 2344 1331 1650 1516
L 1591 1531
L 1394 1581
Q 956 1697 753 1886
Q 550 2075 550 2369
Q 550 2928 970 3256
Q 1391 3584 2113 3584
Q 2397 3584 2667 3537
Q 2938 3491 3200 3397
z
" transform="scale(0.015625)"/>
     </defs>
     <use xlink:href="#DejaVuSans-Oblique-50"/>
     <use xlink:href="#DejaVuSans-Oblique-72" transform="translate(60.302734 0)"/>
     <use xlink:href="#DejaVuSans-Oblique-69" transform="translate(101.416016 0)"/>
     <use xlink:href="#DejaVuSans-Oblique-63" transform="translate(129.199219 0)"/>
     <use xlink:href="#DejaVuSans-Oblique-65" transform="translate(184.179688 0)"/>
     <use xlink:href="#DejaVuSans-Oblique-20" transform="translate(245.703125 0)"/>
     <use xlink:href="#DejaVuSans-Oblique-64" transform="translate(277.490234 0)"/>
     <use xlink:href="#DejaVuSans-Oblique-72" transform="translate(340.966797 0)"/>
     <use xlink:href="#DejaVuSans-Oblique-6f" transform="translate(382.080078 0)"/>
     <use xlink:href="#DejaVuSans-Oblique-70" transform="translate(443.261719 0)"/>
     <use xlink:href="#DejaVuSans-Oblique-73" transform="translate(506.738281 0)"/>
    </g>
   </g>
   <g id="patch_11">
    <path d="M 330.593214 240.692482
Q 367.905549 157.263377 450.397394 121.993488
" style="fill: none; stroke: #a6adc8; stroke-width: 1.5; stroke-linecap: round"/>
    <path d="M 443.701106 121.593822
L 450.397394 121.993488
L 446.059889 127.110718
z
" style="fill: #a6adc8; stroke: #a6adc8; stroke-width: 1.5; stroke-linecap: round"/>
   </g>
   <g id="text_19">
    <!-- Price rises -->
    <g style="fill: #a6adc8" transform="translate(360.783125 219.652969) scale(0.085 -0.085)">
     <use xlink:href="#DejaVuSans-Oblique-50"/>
     <use xlink:href="#DejaVuSans-Oblique-72" transform="translate(60.302734 0)"/>
     <use xlink:href="#DejaVuSans-Oblique-69" transform="translate(101.416016 0)"/>
     <use xlink:href="#DejaVuSans-Oblique-63" transform="translate(129.199219 0)"/>
     <use xlink:href="#DejaVuSans-Oblique-65" transform="translate(184.179688 0)"/>
     <use xlink:href="#DejaVuSans-Oblique-20" transform="translate(245.703125 0)"/>
     <use xlink:href="#DejaVuSans-Oblique-72" transform="translate(277.490234 0)"/>
     <use xlink:href="#DejaVuSans-Oblique-69" transform="translate(318.603516 0)"/>
     <use xlink:href="#DejaVuSans-Oblique-73" transform="translate(346.386719 0)"/>
     <use xlink:href="#DejaVuSans-Oblique-65" transform="translate(398.486328 0)"/>
     <use xlink:href="#DejaVuSans-Oblique-73" transform="translate(460.009766 0)"/>
    </g>
   </g>
   <g id="text_20">
    <!-- Grid Trading Cycle — Buy Low, Sell High -->
    <g style="fill: #cdd6f4" transform="translate(184.072422 17.077969) scale(0.13 -0.13)">
     <defs>
      <path id="DejaVuSans-Bold-47" d="M 4781 347
Q 4331 128 3847 18
Q 3363 -91 2847 -91
Q 1681 -91 1000 561
Q 319 1213 319 2328
Q 319 3456 1012 4103
Q 1706 4750 2913 4750
Q 3378 4750 3804 4662
Q 4231 4575 4609 4403
L 4609 3438
Q 4219 3659 3833 3768
Q 3447 3878 3059 3878
Q 2341 3878 1952 3476
Q 1563 3075 1563 2328
Q 1563 1588 1938 1184
Q 2313 781 3003 781
Q 3191 781 3352 804
Q 3513 828 3641 878
L 3641 1784
L 2906 1784
L 2906 2591
L 4781 2591
L 4781 347
z
" transform="scale(0.015625)"/>
      <path id="DejaVuSans-Bold-64" d="M 2919 2988
L 2919 4863
L 4044 4863
L 4044 0
L 2919 0
L 2919 506
Q 2688 197 2409 53
Q 2131 -91 1766 -91
Q 1119 -91 703 423
Q 288 938 288 1747
Q 288 2556 703 3070
Q 1119 3584 1766 3584
Q 2128 3584 2408 3439
Q 2688 3294 2919 2988
z
M 2181 722
Q 2541 722 2730 984
Q 2919 1247 2919 1747
Q 2919 2247 2730 2509
Q 2541 2772 2181 2772
Q 1825 2772 1636 2509
Q 1447 2247 1447 1747
Q 1447 1247 1636 984
Q 1825 722 2181 722
z
" transform="scale(0.015625)"/>
      <path id="DejaVuSans-Bold-54" d="M 31 4666
L 4331 4666
L 4331 3756
L 2784 3756
L 2784 0
L 1581 0
L 1581 3756
L 31 3756
L 31 4666
z
" transform="scale(0.015625)"/>
      <path id="DejaVuSans-Bold-61" d="M 2106 1575
Q 1756 1575 1579 1456
Q 1403 1338 1403 1106
Q 1403 894 1545 773
Q 1688 653 1941 653
Q 2256 653 2472 879
Q 2688 1106 2688 1447
L 2688 1575
L 2106 1575
z
M 3816 1997
L 3816 0
L 2688 0
L 2688 519
Q 2463 200 2181 54
Q 1900 -91 1497 -91
Q 953 -91 614 226
Q 275 544 275 1050
Q 275 1666 698 1953
Q 1122 2241 2028 2241
L 2688 2241
L 2688 2328
Q 2688 2594 2478 2717
Q 2269 2841 1825 2841
Q 1466 2841 1156 2769
Q 847 2697 581 2553
L 581 3406
Q 941 3494 1303 3539
Q 1666 3584 2028 3584
Q 2975 3584 3395 3211
Q 3816 2838 3816 1997
z
" transform="scale(0.015625)"/>
      <path id="DejaVuSans-Bold-6e" d="M 4056 2131
L 4056 0
L 2931 0
L 2931 347
L 2931 1631
Q 2931 2084 2911 2256
Q 2891 2428 2841 2509
Q 2775 2619 2662 2680
Q 2550 2741 2406 2741
Q 2056 2741 1856 2470
Q 1656 2200 1656 1722
L 1656 0
L 538 0
L 538 3500
L 1656 3500
L 1656 2988
Q 1909 3294 2193 3439
Q 2478 3584 2822 3584
Q 3428 3584 3742 3212
Q 4056 2841 4056 2131
z
" transform="scale(0.015625)"/>
      <path id="DejaVuSans-Bold-67" d="M 2919 594
Q 2688 288 2409 144
Q 2131 0 1766 0
Q 1125 0 706 504
Q 288 1009 288 1791
Q 288 2575 706 3076
Q 1125 3578 1766 3578
Q 2131 3578 2409 3434
Q 2688 3291 2919 2981
L 2919 3500
L 4044 3500
L 4044 353
Q 4044 -491 3511 -936
Q 2978 -1381 1966 -1381
Q 1638 -1381 1331 -1331
Q 1025 -1281 716 -1178
L 716 -306
Q 1009 -475 1290 -558
Q 1572 -641 1856 -641
Q 2406 -641 2662 -400
Q 2919 -159 2919 353
L 2919 594
z
M 2181 2772
Q 1834 2772 1640 2515
Q 1447 2259 1447 1791
Q 1447 1309 1634 1061
Q 1822 813 2181 813
Q 2531 813 2725 1069
Q 2919 1325 2919 1791
Q 2919 2259 2725 2515
Q 2531 2772 2181 2772
z
" transform="scale(0.015625)"/>
      <path id="DejaVuSans-Bold-43" d="M 4288 256
Q 3956 84 3597 -3
Q 3238 -91 2847 -91
Q 1681 -91 1000 561
Q 319 1213 319 2328
Q 319 3447 1000 4098
Q 1681 4750 2847 4750
Q 3238 4750 3597 4662
Q 3956 4575 4288 4403
L 4288 3438
Q 3953 3666 3628 3772
Q 3303 3878 2944 3878
Q 2300 3878 1931 3465
Q 1563 3053 1563 2328
Q 1563 1606 1931 1193
Q 2300 781 2944 781
Q 3303 781 3628 887
Q 3953 994 4288 1222
L 4288 256
z
" transform="scale(0.015625)"/>
      <path id="DejaVuSans-Bold-79" d="M 78 3500
L 1197 3500
L 2138 1125
L 2938 3500
L 4056 3500
L 2584 -331
Q 2363 -916 2067 -1148
Q 1772 -1381 1288 -1381
L 641 -1381
L 641 -647
L 991 -647
Q 1275 -647 1404 -556
Q 1534 -466 1606 -231
L 1638 -134
L 78 3500
z
" transform="scale(0.015625)"/>
      <path id="DejaVuSans-Bold-63" d="M 3366 3391
L 3366 2478
Q 3138 2634 2908 2709
Q 2678 2784 2431 2784
Q 1963 2784 1702 2511
Q 1441 2238 1441 1747
Q 1441 1256 1702 982
Q 1963 709 2431 709
Q 2694 709 2930 787
Q 3166 866 3366 1019
L 3366 103
Q 3103 6 2833 -42
Q 2563 -91 2291 -91
Q 1344 -91 809 395
Q 275 881 275 1747
Q 275 2613 809 3098
Q 1344 3584 2291 3584
Q 2566 3584 2833 3536
Q 3100 3488 3366 3391
z
" transform="scale(0.015625)"/>
      <path id="DejaVuSans-Bold-6c" d="M 538 4863
L 1656 4863
L 1656 0
L 538 0
L 538 4863
z
" transform="scale(0.015625)"/>
      <path id="DejaVuSans-Bold-65" d="M 4031 1759
L 4031 1441
L 1416 1441
Q 1456 1047 1700 850
Q 1944 653 2381 653
Q 2734 653 3104 758
Q 3475 863 3866 1075
L 3866 213
Q 3469 63 3072 -14
Q 2675 -91 2278 -91
Q 1328 -91 801 392
Q 275 875 275 1747
Q 275 2603 792 3093
Q 1309 3584 2216 3584
Q 3041 3584 3536 3087
Q 4031 2591 4031 1759
z
M 2881 2131
Q 2881 2450 2695 2645
Q 2509 2841 2209 2841
Q 1884 2841 1681 2658
Q 1478 2475 1428 2131
L 2881 2131
z
" transform="scale(0.015625)"/>
      <path id="DejaVuSans-Bold-2014" d="M 344 2156
L 6056 2156
L 6056 1350
L 344 1350
L 344 2156
z
" transform="scale(0.015625)"/>
      <path id="DejaVuSans-Bold-75" d="M 500 1363
L 500 3500
L 1625 3500
L 1625 3150
Q 1625 2866 1622 2436
Q 1619 2006 1619 1863
Q 1619 1441 1641 1255
Q 1663 1069 1716 984
Q 1784 875 1895 815
Q 2006 756 2150 756
Q 2500 756 2700 1025
Q 2900 1294 2900 1772
L 2900 3500
L 4019 3500
L 4019 0
L 2900 0
L 2900 506
Q 2647 200 2364 54
Q 2081 -91 1741 -91
Q 1134 -91 817 281
Q 500 653 500 1363
z
" transform="scale(0.015625)"/>
      <path id="DejaVuSans-Bold-77" d="M 225 3500
L 1313 3500
L 1900 1088
L 2491 3500
L 3425 3500
L 4013 1113
L 4603 3500
L 5691 3500
L 4769 0
L 3547 0
L 2956 2406
L 2369 0
L 1147 0
L 225 3500
z
" transform="scale(0.015625)"/>
      <path id="DejaVuSans-Bold-48" d="M 588 4666
L 1791 4666
L 1791 2888
L 3566 2888
L 3566 4666
L 4769 4666
L 4769 0
L 3566 0
L 3566 1978
L 1791 1978
L 1791 0
L 588 0
L 588 4666
z
" transform="scale(0.015625)"/>
      <path id="DejaVuSans-Bold-68" d="M 4056 2131
L 4056 0
L 2931 0
L 2931 347
L 2931 1625
Q 2931 2084 2911 2256
Q 2891 2428 2841 2509
Q 2775 2619 2662 2680
Q 2550 2741 2406 2741
Q 2056 2741 1856 2470
Q 1656 2200 1656 1722
L 1656 0
L 538 0
L 538 4863
L 1656 4863
L 1656 2988
Q 1909 3294 2193 3439
Q 2478 3584 2822 3584
Q 3428 3584 3742 3212
Q 4056 2841 4056 2131
z
" transform="scale(0.015625)"/>
     </defs>
     <use xlink:href="#DejaVuSans-Bold-47"/>
     <use xlink:href="#DejaVuSans-Bold-72" transform="translate(82.080078 0)"/>
     <use xlink:href="#DejaVuSans-Bold-69" transform="translate(131.396484 0)"/>
     <use xlink:href="#DejaVuSans-Bold-64" transform="translate(165.673828 0)"/>
     <use xlink:href="#DejaVuSans-Bold-20" transform="translate(237.255859 0)"/>
     <use xlink:href="#DejaVuSans-Bold-54" transform="translate(272.070312 0)"/>
     <use xlink:href="#DejaVuSans-Bold-72" transform="translate(329.283203 0)"/>
     <use xlink:href="#DejaVuSans-Bold-61" transform="translate(378.599609 0)"/>
     <use xlink:href="#DejaVuSans-Bold-64" transform="translate(446.080078 0)"/>
     <use xlink:href="#DejaVuSans-Bold-69" transform="translate(517.662109 0)"/>
     <use xlink:href="#DejaVuSans-Bold-6e" transform="translate(551.939453 0)"/>
     <use xlink:href="#DejaVuSans-Bold-67" transform="translate(623.130859 0)"/>
     <use xlink:href="#DejaVuSans-Bold-20" transform="translate(694.712891 0)"/>
     <use xlink:href="#DejaVuSans-Bold-43" transform="translate(729.527344 0)"/>
     <use xlink:href="#DejaVuSans-Bold-79" transform="translate(802.916016 0)"/>
     <use xlink:href="#DejaVuSans-Bold-63" transform="translate(868.101562 0)"/>
     <use xlink:href="#DejaVuSans-Bold-6c" transform="translate(927.378906 0)"/>
     <use xlink:href="#DejaVuSans-Bold-65" transform="translate(961.65625 0)"/>
     <use xlink:href="#DejaVuSans-Bold-20" transform="translate(1029.478516 0)"/>
     <use xlink:href="#DejaVuSans-Bold-2014" transform="translate(1064.292969 0)"/>
     <use xlink:href="#DejaVuSans-Bold-20" transform="translate(1164.292969 0)"/>
     <use xlink:href="#DejaVuSans-Bold-42" transform="translate(1199.107422 0)"/>
     <use xlink:href="#DejaVuSans-Bold-75" transform="translate(1275.328125 0)"/>
     <use xlink:href="#DejaVuSans-Bold-79" transform="translate(1346.519531 0)"/>
     <use xlink:href="#DejaVuSans-Bold-20" transform="translate(1411.705078 0)"/>
     <use xlink:href="#DejaVuSans-Bold-4c" transform="translate(1446.519531 0)"/>
     <use xlink:href="#DejaVuSans-Bold-6f" transform="translate(1510.240234 0)"/>
     <use xlink:href="#DejaVuSans-Bold-77" transform="translate(1578.941406 0)"/>
     <use xlink:href="#DejaVuSans-Bold-2c" transform="translate(1664.949219 0)"/>
     <use xlink:href="#DejaVuSans-Bold-20" transform="translate(1702.9375 0)"/>
     <use xlink:href="#DejaVuSans-Bold-53" transform="translate(1737.751953 0)"/>
     <use xlink:href="#DejaVuSans-Bold-65" transform="translate(1809.773438 0)"/>
     <use xlink:href="#DejaVuSans-Bold-6c" transform="translate(1877.595703 0)"/>
     <use xlink:href="#DejaVuSans-Bold-6c" transform="translate(1911.873047 0)"/>
     <use xlink:href="#DejaVuSans-Bold-20" transform="translate(1946.150391 0)"/>
     <use xlink:href="#DejaVuSans-Bold-48" transform="translate(1980.964844 0)"/>
     <use xlink:href="#DejaVuSans-Bold-69" transform="translate(2064.65625 0)"/>
     <use xlink:href="#DejaVuSans-Bold-67" transform="translate(2098.933594 0)"/>
     <use xlink:href="#DejaVuSans-Bold-68" transform="translate(2170.515625 0)"/>
    </g>
   </g>
   <g id="PathCollection_1">
    <path d="M 267.783125 251.644244
L 261.659401 263.891693
L 273.906849 263.891693
z
" clip-path="url(#p962217f013)" style="fill: #a6e3a1"/>
   </g>
   <g id="PathCollection_2">
    <path d="M 453.783125 111.431693
L 459.906849 99.184244
L 447.659401 99.184244
z
" clip-path="url(#p962217f013)" style="fill: #f38ba8"/>
   </g>
  </g>
 </g>
 <defs>
  <clipPath id="p962217f013">
   <rect x="50.783125" y="29.077969" width="558" height="304.92"/>
  </clipPath>
 </defs>
</svg>
